<mxfile host="app.diagrams.net" modified="2024-02-05T02:11:27.445Z" agent="Mozilla/5.0 (Macintosh; Intel Mac OS X 10_15_7) AppleWebKit/537.36 (KHTML, like Gecko) Chrome/121.0.0.0 Safari/537.36" etag="iYvrPTt51LL3kPdHTAEm" version="23.0.2" type="device">
  <diagram id="z-FsIPkUhFDbVIC-KI6s" name="Page-1">
    <mxGraphModel dx="1137" dy="740" grid="0" gridSize="10" guides="0" tooltips="0" connect="1" arrows="1" fold="1" page="0" pageScale="1" pageWidth="850" pageHeight="1100" math="0" shadow="0">
      <root>
        <mxCell id="0" />
        <mxCell id="1" parent="0" />
        <mxCell id="4Z6NapCHLpMP4u1BnLmX-9" style="edgeStyle=orthogonalEdgeStyle;rounded=0;orthogonalLoop=1;jettySize=auto;html=1;exitX=1;exitY=0.5;exitDx=0;exitDy=0;exitPerimeter=0;entryX=0;entryY=0.5;entryDx=0;entryDy=0;fontFamily=Roboto;fontSource=https%3A%2F%2Ffonts.googleapis.com%2Fcss%3Ffamily%3DRoboto;fontSize=14;fontStyle=1" parent="1" source="4Z6NapCHLpMP4u1BnLmX-2" edge="1">
          <mxGeometry relative="1" as="geometry">
            <mxPoint x="643.67" y="404" as="targetPoint" />
          </mxGeometry>
        </mxCell>
        <mxCell id="4Z6NapCHLpMP4u1BnLmX-2" value="" style="points=[[0.015,0.015,0],[0.985,0.015,0],[0.985,0.985,0],[0.015,0.985,0],[0.25,0,0],[0.5,0,0],[0.75,0,0],[1,0.25,0],[1,0.5,0],[1,0.75,0],[0.75,1,0],[0.5,1,0],[0.25,1,0],[0,0.75,0],[0,0.5,0],[0,0.25,0]];verticalLabelPosition=bottom;html=1;verticalAlign=top;aspect=fixed;align=center;pointerEvents=1;shape=mxgraph.cisco19.dns_server;fillColor=#005073;strokeColor=none;fontFamily=Roboto;fontSource=https%3A%2F%2Ffonts.googleapis.com%2Fcss%3Ffamily%3DRoboto;fontSize=14;fontStyle=1" parent="1" vertex="1">
          <mxGeometry x="472.45" y="343" width="67.1" height="122" as="geometry" />
        </mxCell>
        <mxCell id="4Z6NapCHLpMP4u1BnLmX-14" style="edgeStyle=orthogonalEdgeStyle;rounded=0;orthogonalLoop=1;jettySize=auto;html=1;exitX=0.5;exitY=0;exitDx=0;exitDy=0;entryX=0.5;entryY=1;entryDx=0;entryDy=0;fontFamily=Roboto;fontSource=https%3A%2F%2Ffonts.googleapis.com%2Fcss%3Ffamily%3DRoboto;fontSize=14;fontStyle=1" parent="1" source="4Z6NapCHLpMP4u1BnLmX-5" target="4Z6NapCHLpMP4u1BnLmX-12" edge="1">
          <mxGeometry relative="1" as="geometry" />
        </mxCell>
        <mxCell id="4Z6NapCHLpMP4u1BnLmX-20" style="edgeStyle=orthogonalEdgeStyle;rounded=0;orthogonalLoop=1;jettySize=auto;html=1;exitX=1;exitY=0.5;exitDx=0;exitDy=0;entryX=0;entryY=0.5;entryDx=0;entryDy=0;entryPerimeter=0;strokeColor=#000000;dashed=1;fontFamily=Roboto;fontSource=https%3A%2F%2Ffonts.googleapis.com%2Fcss%3Ffamily%3DRoboto;fontSize=14;fontStyle=1" parent="1" source="4Z6NapCHLpMP4u1BnLmX-5" target="4Z6NapCHLpMP4u1BnLmX-17" edge="1">
          <mxGeometry relative="1" as="geometry" />
        </mxCell>
        <mxCell id="4Z6NapCHLpMP4u1BnLmX-5" value="" style="shape=image;html=1;verticalAlign=top;verticalLabelPosition=bottom;labelBackgroundColor=#ffffff;imageAspect=0;aspect=fixed;image=https://cdn1.iconfinder.com/data/icons/anycolor-common-type-files-pack/512/json_anycolor-128.png;fontFamily=Roboto;fontSource=https%3A%2F%2Ffonts.googleapis.com%2Fcss%3Ffamily%3DRoboto;fontSize=14;fontStyle=1" parent="1" vertex="1">
          <mxGeometry x="462.5" y="616" width="112" height="112" as="geometry" />
        </mxCell>
        <mxCell id="4Z6NapCHLpMP4u1BnLmX-18" style="edgeStyle=orthogonalEdgeStyle;rounded=0;orthogonalLoop=1;jettySize=auto;html=1;exitX=0.5;exitY=1;exitDx=0;exitDy=0;entryX=0.5;entryY=0;entryDx=0;entryDy=0;entryPerimeter=0;fontFamily=Roboto;fontSource=https%3A%2F%2Ffonts.googleapis.com%2Fcss%3Ffamily%3DRoboto;fontSize=14;fontStyle=1" parent="1" source="4Z6NapCHLpMP4u1BnLmX-8" target="4Z6NapCHLpMP4u1BnLmX-17" edge="1">
          <mxGeometry relative="1" as="geometry" />
        </mxCell>
        <mxCell id="4Z6NapCHLpMP4u1BnLmX-8" value="" style="shape=image;html=1;verticalAlign=top;verticalLabelPosition=bottom;labelBackgroundColor=#ffffff;imageAspect=0;aspect=fixed;image=https://cdn2.iconfinder.com/data/icons/picol-vector/32/website-128.png;fontFamily=Roboto;fontSource=https%3A%2F%2Ffonts.googleapis.com%2Fcss%3Ffamily%3DRoboto;fontSize=14;fontStyle=1" parent="1" vertex="1">
          <mxGeometry x="898.67" y="348" width="128" height="128" as="geometry" />
        </mxCell>
        <mxCell id="4Z6NapCHLpMP4u1BnLmX-11" value="DNS Records" style="text;html=1;strokeColor=none;fillColor=none;align=center;verticalAlign=middle;whiteSpace=wrap;rounded=0;fontStyle=1;fontFamily=Roboto;fontSource=https%3A%2F%2Ffonts.googleapis.com%2Fcss%3Ffamily%3DRoboto;fontSize=14;" parent="1" vertex="1">
          <mxGeometry x="462.5" y="469" width="87" height="32" as="geometry" />
        </mxCell>
        <mxCell id="4Z6NapCHLpMP4u1BnLmX-12" value="Wallet DID Public Key" style="text;html=1;strokeColor=none;fillColor=none;align=center;verticalAlign=middle;whiteSpace=wrap;rounded=0;fontStyle=1;fontFamily=Roboto;fontSource=https%3A%2F%2Ffonts.googleapis.com%2Fcss%3Ffamily%3DRoboto;fontSize=14;" parent="1" vertex="1">
          <mxGeometry x="655.67" y="461" width="104" height="43" as="geometry" />
        </mxCell>
        <mxCell id="4Z6NapCHLpMP4u1BnLmX-15" value="Verifiable Document File" style="text;html=1;align=center;verticalAlign=middle;resizable=0;points=[];autosize=1;fontStyle=1;fontFamily=Roboto;fontSource=https%3A%2F%2Ffonts.googleapis.com%2Fcss%3Ffamily%3DRoboto;fontSize=14;" parent="1" vertex="1">
          <mxGeometry x="434" y="728" width="169" height="29" as="geometry" />
        </mxCell>
        <mxCell id="4Z6NapCHLpMP4u1BnLmX-16" value="Decentralized Renderer" style="text;html=1;align=center;verticalAlign=middle;resizable=0;points=[];autosize=1;fontStyle=1;fontFamily=Roboto;fontSource=https%3A%2F%2Ffonts.googleapis.com%2Fcss%3Ffamily%3DRoboto;fontSize=14;" parent="1" vertex="1">
          <mxGeometry x="882.17" y="338" width="162" height="29" as="geometry" />
        </mxCell>
        <mxCell id="4Z6NapCHLpMP4u1BnLmX-17" value="" style="verticalLabelPosition=bottom;html=1;verticalAlign=top;align=center;strokeColor=none;fillColor=#00BEF2;shape=mxgraph.azure.computer;pointerEvents=1;fontFamily=Roboto;fontSource=https%3A%2F%2Ffonts.googleapis.com%2Fcss%3Ffamily%3DRoboto;fontSize=14;fontStyle=1" parent="1" vertex="1">
          <mxGeometry x="873.67" y="569" width="178" height="148" as="geometry" />
        </mxCell>
        <mxCell id="4Z6NapCHLpMP4u1BnLmX-19" value="Document Viewer" style="text;html=1;align=center;verticalAlign=middle;resizable=0;points=[];autosize=1;fontStyle=1;fontFamily=Roboto;fontSource=https%3A%2F%2Ffonts.googleapis.com%2Fcss%3Ffamily%3DRoboto;fontSize=14;" parent="1" vertex="1">
          <mxGeometry x="896.67" y="717" width="128" height="29" as="geometry" />
        </mxCell>
        <mxCell id="4Z6NapCHLpMP4u1BnLmX-21" value="Issuance Proof" style="text;html=1;align=center;verticalAlign=middle;resizable=0;points=[];autosize=1;fontFamily=Roboto;fontSource=https%3A%2F%2Ffonts.googleapis.com%2Fcss%3Ffamily%3DRoboto;fontSize=14;fontStyle=1" parent="1" vertex="1">
          <mxGeometry x="549.67" y="536" width="112" height="29" as="geometry" />
        </mxCell>
        <mxCell id="4Z6NapCHLpMP4u1BnLmX-22" value="Identity Proof" style="text;html=1;align=center;verticalAlign=middle;resizable=0;points=[];autosize=1;fontFamily=Roboto;fontSource=https%3A%2F%2Ffonts.googleapis.com%2Fcss%3Ffamily%3DRoboto;fontSize=14;fontStyle=1" parent="1" vertex="1">
          <mxGeometry x="544.67" y="380" width="102" height="29" as="geometry" />
        </mxCell>
        <mxCell id="4Z6NapCHLpMP4u1BnLmX-23" value="Embedded" style="text;html=1;align=center;verticalAlign=middle;resizable=0;points=[];autosize=1;fontFamily=Roboto;fontSource=https%3A%2F%2Ffonts.googleapis.com%2Fcss%3Ffamily%3DRoboto;fontSize=14;fontStyle=1" parent="1" vertex="1">
          <mxGeometry x="959.17" y="507" width="85" height="29" as="geometry" />
        </mxCell>
        <mxCell id="YBbk54JvgmvsVsJnbM-T-1" value="" style="shape=image;verticalLabelPosition=bottom;labelBackgroundColor=default;verticalAlign=top;aspect=fixed;imageAspect=0;image=data:image/png,iVBORw0KGgoAAAANSUhEUgAAA4QAAAL4CAYAAAAj2Tk1AAAMPWlDQ1BJQ0MgUHJvZmlsZQAASImVVwdYU8kWnltSIbQAAlJCb4KIlABSQmgBpHcbIQkQSoyBoGJHFhVcCyoWsKGrIoqdZkfsLIq9LxYUlHWxYFfepICu+8r3zvfNvf/958x/zpw7twwA6ie4YnEOqgFArihfEhPsz0hKTmGQugECMEAGbsCUy8sTs6KiwgG0wfPf7d0N6A3tqoNM65/9/9U0+YI8HgBIFMRp/DxeLsQHAcCreGJJPgBEGW8+NV8sw7ABbQlMEOKFMpyhwFUynKbAe+U+cTFsiFsBIKtyuZIMANQuQ55RwMuAGmp9EDuJ+EIRAOoMiH1ycyfzIU6F2Ab6iCGW6TPTftDJ+Jtm2pAml5sxhBVzkRs5QJgnzuFO/z/L8b8tN0c6GMMKNtVMSUiMbM6wbreyJ4fJsCrEvaK0iEiItSD+IOTL/SFGqZnSkHiFP2rIy2PDmgFdiJ343IAwiA0hDhLlRIQr+bR0YRAHYrhC0GnCfE4cxHoQLxTkBcYqfTZJJscoY6H16RI2S8mf40rkcWWxHkiz41lK/deZAo5SH1MrzIxLhJgKsUWBMCECYjWIHfOyY8OUPmMKM9kRgz4SaYwsfwuIYwSiYH+FPlaQLgmKUfqX5uYNzhfblCnkRCjx/vzMuBBFfbBWHleeP5wLdlkgYsUP6gjyksIH58IXBAQq5o51C0TxsUqdD+J8/xjFWJwqzolS+uNmgpxgGW8GsUteQaxyLJ6QDxekQh9PF+dHxSnyxAuzuKFRinzwZSAcsEEAYAApbGlgMsgCwvbehl54pegJAlwgARlAAByUzOCIRHmPCB5jQSH4EyIByBsa5y/vFYACyH8dYhVHB5Au7y2Qj8gGTyHOBWEgB15L5aNEQ9ESwBPICP8RnQsbD+abA5us/9/zg+x3hgWZcCUjHYzIUB/0JAYSA4ghxCCiLW6A++BeeDg8+sHmjDNxj8F5fPcnPCV0EB4RrhM6CbcnCYskP2U5FnRC/SBlLdJ+rAVuBTVdcX/cG6pDZVwXNwAOuAuMw8J9YWRXyLKVecuqwvhJ+28z+OFuKP0oThSUMoziR7H5eaSanZrrkIqs1j/WR5Fr2lC92UM9P8dn/1B9PjyH/eyJLcQOYGexk9h57AjWABjYcawRa8OOyvDQ6noiX12D0WLk+WRDHeE/4g3eWVkl85xqnXqcvij68gXTZO9owJ4sni4RZmTmM1jwiyBgcEQ8xxEMZydnFwBk3xfF6+tNtPy7gei2fefm/wGA9/GBgYHD37nQ4wDsc4ePf9N3zoYJPx0qAJxr4kklBQoOlx0I8C2hDp80fWAMzIENnI8z/Ip5AT8QCEJBJIgDyWAizD4TrnMJmApmgnmgBJSBZWAVWAc2gi1gB9gN9oMGcAScBGfARXAZXAd34erpAi9AH3gHPiMIQkJoCB3RR0wQS8QecUaYiA8SiIQjMUgykopkICJEisxE5iNlSDmyDtmM1CD7kCbkJHIe6UBuIw+RHuQ18gnFUFVUGzVCrdCRKBNloWFoHDoBzUCnoIVoMboEXYNWo7vQevQkehG9jnaiL9B+DGAqmC5mijlgTIyNRWIpWDomwWZjpVgFVo3VYc3wPl/FOrFe7CNOxOk4A3eAKzgEj8d5+BR8Nr4YX4fvwOvxVvwq/hDvw78RaARDgj3Bk8AhJBEyCFMJJYQKwjbCIcJp+Cx1Ed4RiURdojXRHT6LycQs4gziYuJ64h7iCWIH8TGxn0Qi6ZPsSd6kSBKXlE8qIa0l7SIdJ10hdZE+kFXIJmRnchA5hSwiF5EryDvJx8hXyM/InykaFEuKJyWSwqdMpyylbKU0Uy5RuiifqZpUa6o3NY6aRZ1HXUOto56m3qO+UVFRMVPxUIlWEarMVVmjslflnMpDlY+qWqp2qmzV8apS1SWq21VPqN5WfUOj0axofrQUWj5tCa2Gdor2gPZBja7mqMZR46vNUatUq1e7ovZSnaJuqc5Sn6heqF6hfkD9knqvBkXDSoOtwdWYrVGp0aRxU6Nfk645SjNSM1dzseZOzfOa3VokLSutQC2+VrHWFq1TWo/pGN2czqbz6PPpW+mn6V3aRG1rbY52lnaZ9m7tdu0+HS0dF50EnWk6lTpHdTp1MV0rXY5uju5S3f26N3Q/DTMaxhomGLZoWN2wK8Pe6w3X89MT6JXq7dG7rvdJn6EfqJ+tv1y/Qf++AW5gZxBtMNVgg8Fpg97h2sO9hvOGlw7fP/yOIWpoZxhjOMNwi2GbYb+RsVGwkdhordEpo15jXWM/4yzjlcbHjHtM6CY+JkKTlSbHTZ4zdBgsRg5jDaOV0WdqaBpiKjXdbNpu+tnM2izerMhsj9l9c6o50zzdfKV5i3mfhYnFWIuZFrUWdywplkzLTMvVlmct31tZWyVaLbBqsOq21rPmWBda11rfs6HZ+NpMsam2uWZLtGXaZtuut71sh9q52mXaVdpdskft3eyF9uvtO0YQRniMEI2oHnHTQdWB5VDgUOvw0FHXMdyxyLHB8eVIi5EpI5ePPDvym5OrU47TVqe7o7RGhY4qGtU86rWznTPPudL52mja6KDRc0Y3jn7lYu8icNngcsuV7jrWdYFri+tXN3c3iVudW4+7hXuqe5X7TaY2M4q5mHnOg+Dh7zHH44jHR083z3zP/Z5/eTl4ZXvt9OoeYz1GMGbrmMfeZt5c783enT4Mn1SfTT6dvqa+XN9q30d+5n58v21+z1i2rCzWLtZLfyd/if8h//dsT/Ys9okALCA4oDSgPVArMD5wXeCDILOgjKDaoL5g1+AZwSdCCCFhIctDbnKMODxODacv1D10VmhrmGpYbNi6sEfhduGS8Oax6NjQsSvG3ouwjBBFNESCSE7kisj7UdZRU6IORxOjo6Iro5/GjIqZGXM2lh47KXZn7Ls4/7ilcXfjbeKl8S0J6gnjE2oS3icGJJYndiaNTJqVdDHZIFmY3JhCSklI2ZbSPy5w3KpxXeNdx5eMvzHBesK0CecnGkzMmXh0kvok7qQDqYTUxNSdqV+4kdxqbn8aJ60qrY/H5q3mveD78VfyewTegnLBs3Tv9PL07gzvjBUZPZm+mRWZvUK2cJ3wVVZI1sas99mR2duzB3ISc/bkknNTc5tEWqJsUetk48nTJneI7cUl4s4pnlNWTemThEm25SF5E/Ia87Xhj3yb1Eb6i/RhgU9BZcGHqQlTD0zTnCaa1jbdbvqi6c8Kgwp/m4HP4M1omWk6c97Mh7NYszbPRmanzW6ZYz6neE7X3OC5O+ZR52XP+73Iqai86O38xPnNxUbFc4sf/xL8S22JWomk5OYCrwUbF+ILhQvbF41etHbRt1J+6YUyp7KKsi+LeYsv/Drq1zW/DixJX9K+1G3phmXEZaJlN5b7Lt9RrlleWP54xdgV9SsZK0tXvl01adX5CpeKjaupq6WrO9eEr2lca7F22dov6zLXXa/0r9xTZVi1qOr9ev76Kxv8NtRtNNpYtvHTJuGmW5uDN9dXW1VXbCFuKdjydGvC1rO/MX+r2WawrWzb1+2i7Z07Yna01rjX1Ow03Lm0Fq2V1vbsGr/r8u6A3Y11DnWb9+juKdsL9kr3Pt+Xuu/G/rD9LQeYB+oOWh6sOkQ/VFqP1E+v72vIbOhsTG7saAptamn2aj502PHw9iOmRyqP6hxdeox6rPjYwPHC4/0nxCd6T2acfNwyqeXuqaRT11qjW9tPh50+dybozKmzrLPHz3mfO3Le83zTBeaFhotuF+vbXNsO/e76+6F2t/b6S+6XGi97XG7uGNNx7IrvlZNXA66euca5dvF6xPWOG/E3bt0cf7PzFv9W9+2c26/uFNz5fHfuPcK90vsa9yseGD6o/sP2jz2dbp1HHwY8bHsU++juY97jF0/ynnzpKn5Ke1rxzORZTbdz95GeoJ7Lz8c973ohfvG5t+RPzT+rXtq8PPiX319tfUl9Xa8krwZeL36j/2b7W5e3Lf1R/Q/e5b77/L70g/6HHR+ZH89+Svz07PPUL6Qva77afm3+Fvbt3kDuwICYK+HKfwUw2ND0dABebweAlgwAHe7PqOMU+z+5IYo9qxyB/4QVe0S5uQFQB//fo3vh381NAPZuhdsvqK8+HoAoGgBxHgAdPXqoDe7V5PtKmRHhPmBT1Ne03DTwb0yx5/wh75/PQKbqAn4+/wuXW3xvEWIgBwAAADhlWElmTU0AKgAAAAgAAYdpAAQAAAABAAAAGgAAAAAAAqACAAQAAAABAAADhKADAAQAAAABAAAC+AAAAAB2otblAABAAElEQVR4Aeyd6XcU152/r9lXLSCJfd9sgwEvcZz4JOeXnJy8nL91XsyLmclM7NiON3aEQIAAgRYk0IbYwfb85rmZIkJIotWq6q7luecU3erl1r3PLbrqU9/tnf/53xZsEpCABCQgAQlIQAISkIAEJFA5AssqN2MnLAEJSEACEpCABCQgAQlIQAKRgILQA0ECEpCABCQgAQlIQAISkEBFCSgIK7rwTlsCEpCABCQgAQlIQAISkICC0GNAAhKQgAQkIAEJSEACEpBARQkoCCu68E5bAhKQgAQkIAEJSEACEpCAgtBjQAISkIAEJCABCUhAAhKQQEUJrKjovJ22BCQgAQlIQAISKDwBqoex/fLLL689znwtec5kk8/zmPydPM5+LX6gxn/eeeed+EkeZz+f77Vly5bFz85+5PO8ZpOABBpDQEHYGM7uRQISkIAEJCABCaRKAAH38uXL8OzZs/D8+fP4+PTp01fPk9eS9/nszz//HL/z008/xef8Pfs1xCXbYtry5cvDihUrXttWrlwZkm3me6tWrQqrV6+O29q1a8OaNWviNvM5788UkosZi5+VgAQWR0BBuDhefloCEpCABCQgAQlkQiCx3r148SKKNh7n2hB2c73Oa4i/5D0EYfKcx0QE8siG6EMM8pi8l/ydWAtrnSgWvUQU8siGGEQIzn4dQch7iD6eIwhnisTk9ZlikveTzyTPZz6yD62Kta6Wn5PA6wQUhK/z8C8JSEACEpCABCTQFAKIMITZo0ePwtTUVNwePHgw5+P09HRgQ8DNJd7meq0pk6php4mL6cyP8tq6devC+vXrw8aNG0Nra2tob28PbW1t8TF5zt9siEgF4UyCPpdA7QTe+d8fjH84kdf+HT8pAQlIQAISkIAEJLBIAog9rHYPHz6cc0MIPn78+DWr3kwLH89nWgd5vljXzkUOuWkfRxDOtDLOtA4mFsSZFkLcTdkSAYmIbGlpiWKS57yOJXIu8dm0SbpjCeSEgIIwJwvhMCQgAQlIQAISKDYB7rGzJSIO8YdoSzbi+xB8ifVv5uPk5GQUibzvvfrFHweIRAQhIhBr4mxLYiIOcUNFSCbuqInQRHyy2SRQRQIKwiquunOWgAQkIAEJSCB1AljrEIHj4+Ph3r17YWRkJIyNjcW/JyYmoosngi+J3cPdc/ZWVotf6rBndYjlL4ljTB4TkUccI8IPwbhp06a4bd68ObB1dnaGrVu3RiHJ+zYJVJGAgrCKq+6cJSABCUhAAhKoiwDWu0T4PXny5JXrZxLTN/sRN9DEFTRJ8lLXjv3SkgggErEKJnGJGzZseOVeivWQv5ONv5MNd1PjE5eE3i8XgICCsACL5BAlIAEJSEACEmgOgZnWPGIA2XAJJdkLlsDR0dFoCRwaGoqPvMZndPtsznrVu1dEH3GGW7ZsCdu2bQs7duyIG38jDnl/psWR58Yj1kvb7+WNgIIwbyvieCQgAQlIQAISyAUBRF0i/HD/RPzhCor7J66fWPzYKPWQbIhFxWAulm9Rg0jcTEk8k8Qj8hyLIoIQV1PcSxGIbF1dXa9E4qJ25IclkEMCCsIcLopDkoAEJCABCUigcQQQcGyIOhK/JG6ePGLxY7t//37ciAlEJCIEFX6NW6Nm7QlLILGFJKpJYg4RhmxJ9tLE1ZRH3FKJWbRJoEgEFIRFWi3HKgEJSEACEpBA6gQSt1AsgLh+9vf3h1u3bsWNEhGIPz6TCEeFYOpLkOsOE9fQJHEN1kS2jo6O6F66d+/esG/fvrB///6Y3RSrok0CRSKgICzSajlWCUhAAhKQgASWRAAxh7ij5APWPlxAsf5hBSQhDAJwZmIYSkaQCdQmgZkEEIe4lBJ3mCSg4THJXopYxK0USyICEcuhTQJ5JaAgzOvKOC4JSEACEpCABFIhQJIXhB3uoEktQKyBg4OD4fbt29EqSIwgn0Es2iRQLwFcSxGDO3fuDLt3746PxB/iToqATGIUTUpTL2G/lwUBBWEWVO1TAhKQgAQkIIFcEMAiiNUPwYcbKO6gd+7ciRZCykYkReQVg7lYrsIPAqGHNZC6hzNrH5K5FIGIW+n27dtj/CGftUkgDwQUhHlYBccgAQlIQAISkEAqBLAGkgwGl1CygSYbLqG4h7LxnLhAXUFTQW4nCxAg1hCXUSyHuI/iRsqGFRHLIVtbW1v8jMloFgDpW5kSUBBmitfOJSABCUhAAhLIkkCS6AVxx4YYvHv3brhx40a4fv16uHnzZhSAZBC1SSAPBMhaunXr1piI5tChQ9FqiEhEOGI1ZENIJsls8jBmx1BuAgrCcq+vs5OABCQgAQmUlgBiEIvg5OTkq+ygxAViBUwSxFAvELdQrYGlPQwKNzEEX5KQhtjCJBkNrqRJ3CEWROoh2iTQCAIKwkZQdh8SkIAEJCABCaRCgKQvCLwkGyguoUmCGOIDsQ4iBhWAqeC2kwYQwBpITUMK3iMId+3aFeMM29vb4+sIRgSkMYcNWIyK7kJBWNGFd9oSkIAEJCCBIhIg9g+LIO6gly9fDr29vbFsRBITiGA0U2gRV7baY8Y9NHEXxTJI+QrqGx4+fDi89957USDyum6k1T5Ospq9gjArsvYrAQlIQAISkMCSCeAWisWPWoHDw8MxWyguodQQZCNBDKUkFIFLRm0HOSGAxRCLIIloEIbEFxJzSKbSHTt2REtiEm+YkyE7jIITUBAWfAEdvgQkIAEJSKBsBBCBuIWSCIbSEAhBksNcvXo11g1ECOoSWrZVdz7zEaCMBe6jWAyPHDkSDh48GLOU4mZKghqyk+pOOh89X6+FgIKwFkp+RgISkIAEJCCBhhBADCL2EhHY09MTC8gjAhGHuIZSM5DP2SRQBQK4iSL6sBomJSyIM0zcSUlAQ3IamwTqJaAgrJec35OABCQgAQlIIBUCuHsm2UJxDSVJDIKQjKG3b9+OMYO4hdokIIEQC9/jSkpW0j179kRXUhLS4FqKm6ni0KNksQQUhIsl5uclIAEJSEACEkiFAFY+xCDuoZSHIEFMd3d3OHv2bHjw4EF0GU1lR3YigRITILZw//794aOPPorupMQZEoeYbCWeulNLiYCCMCWQdiMBCUhAAhKQQO0EEIFTU1Ph1q1bgXIRd+7cCZSQIIMoj7iFGidYO08/WV0CxBFiFSTOEEshgvDAgQOxfAXJaBCGNgksREBBuBAd35OABCQgAQlIIDUCWAOJAaSGIJlCcQmlfAQJYxCECECzhaaG244qSGD9+vUxMynxhVgNSUSDUKSWoZlJK3hA1DhlBWGNoPyYBCQgAQlIQAL1E8A9FKvfyMhIrB94/vz5KAZJFIO1kBhCE8XUz9dvSgACST1DMpMiAjs7O8PJkyfDsWPHwr59+2JiGmsZeqzMJrBi9gv+LQEJSEACEpCABNIigMUPN1ASxSSuoUNDQ+Hu3bvRNZT3FYJp0bafqhPg/xI3V5KNZEw85//b7t2740aGUpLPUOjeJgEIaCH0OJCABCQgAQlIIHUCM+sIkimUGoJYBRGD1BdUBKaO3A4lMC8BxB/lKY4ePRpOnDgR4ws3bdoULYaUtDDOcF50lXhDQViJZXaSEpCABCQggcYQQOixYQ3s6+uL7qGJNZDYQcSgcYKNWQv3IoGEAIIPN1KSz7S1tUVL4aFDh8IHH3wQYw4tVZGQquajLqPVXHdnLQEJSEACEkiVACIPwTc+Ph5rCCIIySDKNj09HeMEU92hnUlAAjUT4P8nCZ3YcOHm/yRZfsnoiyvpzp07Y4ZSMpZiMbRVi4AWwmqtt7OVgAQkIAEJpE4AiyAuoojAc+fOha+++ipedFJb0CYBCeSXAAlmDh48GI4fPx4+//zzWOSebKQmnsnvmmUxMgVhFlTtUwISkIAEJFABApSJwAWUGEHcQykhMTAwEBPIYIkgmYVNAhLINwGykRJPSIF7MpFSw5BHXjO2MN9rl9botAmnRdJ+JCABCUhAAhUgkMQIPnr0KLqckT20t7c3xgpSSxC3UZsEJFAcAriP8v82yf47NjYWsO7v2bMnikLcSFetWlWcCTnSRRPQQrhoZH5BAhKQgAQkUF0CxCJh+bt8+XLo7u6OmUOJG+QCkjqDJoyp7rHhzItNADdREs+QkZT6hSSd+fTTT2Nxe/62lZeAFsLyrq0zk4AEJCABCaRGABFIMorh4eGYKAY3USyCg4ODMVGFQjA11HYkgaYQSGKBubHD/3figrnRg/soG8lnyFCqtbApy5PpTrUQZorXziUgAQlIQALFJZC4h3JhiFvZzZs3w4ULF8KPP/4YXcyIH7RJQALlJrBjx45oLfzss8+itZDYQiyJy5cvL/fEKzQ7BWGFFtupSkACEpCABBZDACsByWF6enqieyiCkJhB0tXznlbBxdD0sxIoJoE1a9bE+oW4jR4+fDgWtt+7d2+sX2g20mKu6exR6zI6m4h/S0ACEpCABCpOAMsgSSbu378f3UIRhCSOuXfvXswqWnE8Tl8ClSKAJwA3hh48eBCePHkSN+KGEYVkJiXpDBZDW3EJaCEs7to5cglIQAISkEAmBCgnQRmJ8+fPhy+//DIWr+aiEKFok4AEqksAiyClKLZv3x6OHTsW/vjHP8bnGzdurC6UEsxcQViCRXQKEpCABCQggaUSwP2TZBLUEbx69WoUhCSOIRU9MYSIRJsEJCABCKxfvz6WpCDRDG6kbDzfsGGDRe0LeIjoMlrARXPIEpCABCQggTQJYP2jriAuoriHnj59OgpBXMRsEpCABGYTIPso7qN3794NuI+SdAq30p07d8ZMpCtWrLCo/WxoOf5bC2GOF8ehSUACEpCABBpBILEK/vDDD9FCSHkJrYKNIO8+JFBsAriQUrcQl9Fdu3aF48ePh88//zy0tLTE2MJiz646o9dCWJ21dqYSkIAEJCCBVwTIEjoxMRGTxly/fj26iN64cSPe6ec9mwQkIIG3ESCuGA8D3M2TDeshLqR79uwJHR0dAWuhLd8EXKF8r4+jk4AEJCABCaRKgAs4BB9ZRCkj8dVXX0UxODIykup+7EwCEqgOAWKMKUfD78q1a9fCb3/72+hlgBjEWkgWUktU5Pd40GU0v2vjyCQgAQlIQAKpE0hiBSkuf+XKlWgh5DXu8tskIAEJLIUAoo9t8+bNMfsolsIPPvggvPvuu2HVqlXGFS4Fbobf1UKYIVy7loAEJCABCeSFADGBJIm5c+dOvIN/7ty5GC9IYgjLSeRllRyHBIpNgN8SNhJUcaMJiyE3m/j9IeFMe3t7oNC91sJ8rbMWwnyth6ORgAQkIAEJpE6ACzTEYHd3dyBxDFlEk6QxisHUcduhBCTwvwQQfdQsJOEMBez/9Kc/xdqFW7duVRDm7AhREOZsQRyOBCQgAQlIIC0CxAoi/KgryEbyGDKKjo6OahVMC7L9SEACCxIgjpC6hXv37o3JZihoT0ZSEs7Y8kFAl9F8rIOjkIAEJCABCaRGAKsfGf+wCiL+Tp06FS5cuBCfIxBtEpCABBpFgBtTiYcCNQtxU6dmIc2EM41ahYX3o4VwYT6+KwEJSEACEigcAS7AxsbGoosoWUTJIEoGQMSgLqKFW04HLIHSECCxDNbC/fv3h6NHj8ZspJ2dnTELaWkmWcCJaCEs4KI5ZAlIQAISkMB8BBKr4OXLl0NPT0+gtiBJHRCJNglIQALNJMBNKTZK3vD4yy+/xAykCESSzVizsDmroyBsDnf3KgEJSEACEkiVABdW1AIbHh6O7qHffPNNGBwcjBdcqe7IziQgAQkskcDk5GTMQnr37t3oTrphw4aApRDrIYlobI0loMtoY3m7NwlIQAISkEDqBBCDxOZcunQpWgVJIEPa96dPn+oimjptO5SABNIggPCjYH1XV1fYs2dP+PTTT2PSmS1btoTly5ensQv7qJGAFsIaQfkxCUhAAhKQQN4IzLQK9vX1xXISuIgSM2iTgAQkkGcC/H6RXAavBiyGCET+xr2dwvZYC22NIaAgbAxn9yIBCUhAAhJInQAXTmTs+/7772Mm0aGhoRgvmPqO7FACEpBARgRwdX/8+HH48ccfYyZkCtqfPHkyJp6xgH1G0Gd1qyCcBcQ/JSABCUhAAnknwJ11LqBu3boV4wVJIEMsDi6ivGeTgAQkUCQCZD8m+RW/Yz/88EN4+PBhmJiYCIcOHYqlKYwrzHY1FYTZ8rV3CUhAAhKQQKoEEqsgCWPOnz8f/vrXv0ZxmNT1SnVndiYBCUiggQSmp6cDG1ZCHokxJL6wtbU1YC3UYpjNYigIs+FqrxKQgAQkIIFMCFBPsL+/P1Bf8Nq1a/FOOi5XNglIQAJlIUBSrJcvX0Zh+Ktf/SrWK1y9erVlKTJaYAVhRmDtVgISkIAEJJAmAdypcKHq7e2N2USvXLkSM4taXzBNyvYlAQnkgQAeD2RORhSScZQN91EykGI11FKY7ipZdiJdnvYmAQlIQAISSJ0A8TXcMb948WKgviCuosYKpo7ZDiUggRwSSGoU/su//Ev48MMPo/uoZSnSXSgFYbo87U0CEpCABCSQKgGEH8ljenp6YhY+YgdJ0Y5ItElAAhIoO4EVK1aENWvWhAMHDoRjx46Fzz77LHR0dFiWIsWF12U0RZh2JQEJSEACEkiTAJlEcRPt7u6OVkEKzps8Jk3C9iUBCeSdAG7xJJnh9w/XeWIJjxw5Enbv3h2FotbCpa+ggnDpDO1BAhKQgAQkkDoBLIAUbKY217lz58KdO3fCixcvUt+PHUpAAhIoAgFuht2+fTveJMNLAsvhjh07wrp164ow/FyPUUGY6+VxcBKQgAQkUDUCCEEsg319fdEyeOHChVibizvjNglIQAJVJcBvI6IQiyFeE2RX/uijj8LevXvDpk2bqoollXkrCFPBaCcSkIAEJCCBpRPggufJkyfRMvj999/HuEHuiNskIAEJSCDE2GkE4c2bN6OlkIL1ZBzFSkj2Ud1H6ztKFIT1cfNbEpCABCQggVQJIAa5433p0qVw6tSpQFmJsbGxVPdhZxKQgATKQIDfy4cPHwZunOFRgTDctWuXlsI6F1dBWCc4vyYBCUhAAhJIiwCZRCk4jzWQeEFEIWLQmMG0CNuPBCRQJgIIQmoUjo6ORssg8YS4j1KrsLW1VUvhIhdbQbhIYH5cAhKQgAQkkCaBxDI4NDQU/v3f/z3cuHEj3Lt3L81d2JcEJCCBUhLg95NSPCTg4sbaqlWrwrvvvhvWrl1byvlmNSkFYVZk7VcCEpCABCTwFgJcwJAshkLzWAapNzg9Pf2Wb/m2BCQgAQkkBBCF/JZSq5X4QjYSzXR2diYf8fEtBBSEbwHk2xKQgAQkIIEsCHAB8+DBg4Bl8MyZM9FN9P79+zGOMIv92acEJCCBshJILIW42VOnkN9XHkk2gzupbWECElqYj+9KQAISkIAEUifAxQt3sSm0/OWXX8aMeePj4/EiJvWd2aEEJCCBihCYmJgIf//732N5CjKOHjx4MLS1tVVk9vVPU0FYPzu/KQEJSEACElg0Ae5c4xZKFtGzZ8+G69evx79JkGCTgAQkIIH6CXCjjd/Xa9euxXIU/K4eOHAguo9SnsI2NwEF4dxcfFUCEpCABCSQCQFiBkmA8M0330QLIW6iNglIQAISSIcAHhgDAwNhcnIyZhvFUtjS0mKdwgXwKggXgONbEpCABCQggbQIcJHC1t3dHU6fPh36+vpiDGFa/duPBCQgAQn8k0CSsAsrIXGEe/bsCZs3b/7nB3z2ioCC8BUKn0hAAhKQgASyIYAQxI3p7t274eLFizGBDDGD1hnMhre9SkACEsB9lBI+iMEk0czKlSvD+vXrrVM46/BQEM4C4p8SkIAEJCCBLAggBv/rv/4rxg7ynFhCmwQkIAEJZEeAm3EjIyNhbGwsikJcR3fv3q0gnIVcQTgLiH9KQAISkIAE0iTw/Pnz0NvbG2sNkkiGLHiKwTQJ25cEJCCB+Qn8/PPP8TcXd30E4u9+97uwffv2sGHDhvm/VLF3FIQVW3CnKwEJSEACjSPw5MmTeGeawvNs1BxUDDaOv3uSgAQkAAGE4O3btwPxhO3t7TEDKcXrSTizbNmyykNSEFb+EBCABCQgAQlkRQABSGmJCxcuRDHIRYlNAhKQgAQaTwBLIVmd//rXv8b47dbW1sBGfGHVm4Kw6keA85eABCQggdQJ4CZKzMrly5fDuXPnwujoaCDjnU0CEpCABJpDgBty/DYTU3jp0qUoBE+ePBndR1etWhWths0ZWfP3qiBs/ho4AglIQAISKBGBpPA8cYNYBhGFNglIQAISaD4Bfp/J7kzheuK5yThKLCHlKKpcuF6n2eYfm45AAhKQgARKRACXJJLHfP311+HmzZslmplTkYAEJFAOAsQSUrj+22+/Dd9//3149OhRwKW0qk0LYVVX3nlLQAISkECqBKh5hVvo9evXYwIZCs8/fPgw1X3YmQQkIAEJLJ0A4u/p06eB32lqE27ZsiXs27cvdHR0VNJSqCBc+jFlDxKQgAQkIIF4cUER5B9//DGcPn06kGHUJDIeGBKQgATySQD3UW7a3bhxI/5W//nPf46CMJ+jzXZUCsJs+dq7BCQgAQmUnACij5iU/v7+8Pe//z26iSIGLS9R8oV3ehKQQOEJ8PuNKLx161a4ePFiWLNmTThw4ECMLSz85BYxAQXhImD5UQlIQAISkMBMAlxMEIuCZfDq1avhu+++C48fP1YMzoTkcwlIQAI5JkDmUWK/SQCG+2hLS0tYsWJFpcpRKAhzfIA6NAlIQAISyDeB5O4yiQmoN8idZi2D+V4zRycBCUhgLgLUjaVt2rQpPlK4vipNQViVlXaeEpCABCSQOgHqWWEZ7OnpiYXnSSxjk4AEJCCB4hEgyQy/6dzcw0JI0XrKUlCjsOxNQVj2FXZ+EpCABCSQOgEsg1gCSUbwzTffxPiT6enp1PdjhxKQgAQk0DgCuPyfO3cuisAdO3aEXbt2RTfSstcotA5h444x9yQBCUhAAiUhgGtod3d33Kg1SBIZmwQkIAEJFJsAN/vYSDLzH//xH/ERyyGvlblpISzz6jo3CUhAAhJInQC1BnEr4i7ytWvXwvj4eOr7sEMJSEACEmgOAcQfv+v81m/dujWsW7cu1ijEdbSslkIFYXOONfcqAQlIQAIFJJBcKFB8/ocffghjY2MFnIVDloAEJCCBhQgQD/7o0aNYV5Yi9hSuJ65w+fLlC32tsO/pMlrYpXPgEpCABCTQSAJcIOAaiqsoSQcmJydj/cFGjsF9SUACEpBA9gS4+YcQ5KZfX19f/M3HM6SsTQthWVfWeUlAAhKQQKoEEIOjo6NREFKvitpVNglIQAISKCcBRCFJZgYHB6NHCEXrN2/eHBPOLFtWLpuagrCcx7CzkoAEJCCBFAmQUfTOnTvhyy+/jEkGiC3hYsEmAQlIQALlJkASsd7e3tDZ2RlrFO7evTuWoyjTrBWEZVpN5yIBCUhAAqkTePHiRbh79268ILh06VJ0FcWVyCYBCUhAAuUn8PLlyzA1NRWTiFGXcO3atbEURZnqEyoIy38cO0MJSEACElgCAVxFL168GLfh4eEl9ORXJSABCUigqASoO0sJCiyEFK0vkyAslwNsUY8wxy0BCUhAArkkMDExEYvPk0gGl1GbBCQgAQlUkwChAw8ePAjfffddwFsET5GyhA5oIazmMe2sJSABCUhgAQKc5Dn5YxHkxE/xecShTQISkIAEqkmAcwJJZq5cuRJaWlpibcJNmzbFOoVFJ6KFsOgr6PglIAEJSCB1Atz5xTWIEz93g7krbJOABCQggWoT4NxAPCG1aL/55ptw7969UgDRQliKZXQSEpCABCSQJgFqDFJa4tq1a2F8fDyQVMAmAQlIQALVJoD3CDVpKUF07ty50NHRETOOYiksctF6BWG1j2tnLwEJSEACMwhwskf8UYD422+/jSUmrDc4A5BPJSABCUggeo1QjmLXrl2hvb09ikKyj77zzjuFpKMgLOSyOWgJSEACEsiCQFJvEFdR4gZ1Fc2Csn1KQAISKD4BbiD29PSEFStWhK1bt8bHomYeNYaw+MejM5CABCQggRQI4Ab06NGjWG8Qd1HcRrUOpgDWLiQgAQmUkACCkBhCylFQuH5sbKyws1QQFnbpHLgEJCABCaRJAPFHvCA1B7nra9xgmnTtSwISkED5CHCeIJ4wCTEo6gwVhEVdOcctAQlIQAKpEhgYGAhfffVVLDXBSZ67vzYJSEACEpDAQgSePHkS483JPNrf3x8zVC/0+Ty+ZwxhHlfFMUlAAhKQQMMIkEac2lKcyM+ePRuthMQS2iQgAQlIQAJvI/DixYvoLorraFdXV1izZk1YvXp1WLasOHY3BeHbVtn3JSABCUig1ASoN0h5iatXr4a7d+/qKlrq1XZyEpCABLIhwE1FPEu2bdsWWltbA1lHi9KKI12LQtRxSkACEpBAYQhwZ5e4wQsXLsSsosQRah0szPI5UAlIQAK5IYCnyfDwcLh06VJ0IS1S2IGCMDeHkQORgAQkIIFGE0hO4N3d3YEYQpsEJCABCUigHgJkqp6eng7nz58PlC7ihmNRbjAqCOtZcb8jAQlIQAKFJ8DdW9xEv//++1higlhCmwQkIAEJSKBeAohCQg/6+vpiKEJRatkaQ1jvivs9CUhAAhIoLAFcQx8+fBhP2ohCLIVFcu8pLHgHLgEJSKDEBLAIUs8Wj5MzZ86ElStXhpaWlphg5p133sntzLUQ5nZpHJgEJCABCWRFADFIIpmbN2+GkZERE8lkBdp+JSABCVSQAAXrv/766ygMcR3N+w1HBWEFD1KnLAEJSKDKBHDp4WT9ww8/xAQA3NHN+8m6yuvl3CUgAQkUjQAiEHdRahP29vaGZ8+e5XoKuozmenkcnAQkIAEJpEkA8cdJGnceMsEVJb4jTQb2JQEJSEAC2RLgXIMopDYhJSi2b98eaxMuX7482x3X2buCsE5wfk0CEpCABIpH4OXLlzH7W09PT4wh5G+bBCQgAQlIIAsCQ0NDYd26deHo0aOxYD3iMI9NQZjHVXFMEpCABCSQOgHu1k5NTb2KHSxCXEfqEOxQAhKQgAQaRuDp06dhdHQ0UNpo1apV0VrYsJ0vYkfGEC4Clh+VgAQkIIHiEiCTKAlkSAc+ODhYmPpQxSXuyCUgAQlUmwDx6YQmnDp1KiYxI4Y9jzHrCsJqH6fOXgISkEAlCHACvn37dvjqq6/C/fv3c3lCrsRCOEkJSEACFSOANwrnnf7+/nhDkrIUeWsKwrytiOORgAQkIIFUCXBHlju0CEJiB3mexzu0qU7aziQgAQlIIBcEfv7551jr9s6dO+HixYsxdIGkM3lqxhDmaTUciwQkIAEJpE6AdN+IQe7OEsuRtxNx6hO2QwlIQAISyB2BJFRh//79oaurK8YU5qVYvYIwd4eLA5KABCQggbQIJGUmzp8/H0Uhd2ptEpBA9QisXLkypv1fvXp14PmKFSve2CgJwG9G4kHA89kbN5ieP38e68rhCmim4uodS/XOmAQzY2Nj4erVq2Hjxo3h4MGDIS9lKBSE9a6q35OABCQggdwT4ARMEfrLly/HIvS5H7ADlIAE6iLAhTVbIvR4vmzZsvgaz0n9v379+ritWbMmikOyPiIQeWRDKCYCkEFwA4kNt/PkkfivZHvy5EkUhsnnks/MfOR5IjDrmphfKg0BjgWOHQrVt7W1hT179sRjNA9WQgVhaQ4zJyIBCUhAArMJ4KLDyXd8fDze1Z/9vn9LQALFJ8AFNWKPi2xc8drb22N6f2q+tbS0xG3t2rWvCoMjFNn43uzniXib+cjzZOOiPhF8CEWshAjD6enpGBvGb02yTU5OxtcVhcU/xtKaAccM4QsdHR3h448/jscqNyWa3RSEzV4B9y8BCUhAAqkT4C4/J95bt27FQvTcleWizCYBCRSXAAIOCyDWPlzuEIEbNmyIG+IPQYgY5L3kdT7D57EAYilMs/E7w+8KbqSIwocPH8akVSSuQiAmj5S84TeI19j42zqoaa5EcfrimOE4uXv3bnQdPXz4cNi2bVvTJ6AgbPoSOAAJSEACEkibAGKQC7QbN25ECyEXXzYJSKCYBBKXOsQgAm/r1q3R3W737t1h165dYefOnVEENtrSklgXcTVFhG7ZsuU1wFz8E29IMisyTN68eTP+JuG5gCjgd2qmJfK1L/tHaQlwXBBLSG1CbmQoCEu71E5MAhKQgASaSQCXLUpMcBeWpA/JRVczx+S+JSCBxRFAcCEAOzs7w/bt2+OGGMQSmFgIk9hAxGLeGkIWyyTugbisMocTJ05EyyGCgNp0IyMjMb55ampKq2HeFjDD8WApvnbtWnj33XfD3r17o0W7mcdw/v73ZAjfriUgAQlIoNwEEH64cHGhde7cuZhQRlfRcq+5sysPAQRUkgAGl09E3+bNm8OOHTuiRRBrIFY4xFViNczz7JP5JO6riQURj4WJiYkoBoeGhmIGZIQhr+FaikspN7KwJNnKSSCxHFMSCUFIKQoFYTnX2llJQAISkECDCSAIySyKixYWQi6ubBKQQDEIYBHE4rdv375w9OjRcODAgehOh6BKsoAiGIsgBhcijospVkMsncwRcUA2ZFzcr1y5Eh/xctDVfSGKxX4v8Vohzp3jgJsFHPvNaloIm0Xe/UpAAhKQQOoEuKvOCZZYHcSgNcJSR2yHEkiVAAIPsUccFS6VxAMm7qGIJqyEWE6KLgJnQmMuzImNEhi4xSaPZEk9cuTIK1fS4eHh6GJK4hpb+Qhw85LzFY+J+3MzZqkgbAZ19ykBCUhAAqkT4I4rF03EZSAKZyZsSH1ndigBCdRNAEGENRAhiPUPCwkWwWPHjgWyLiIC084IWvdgG/BFWCRupdSmw2KICyklcy5evBgT0mAx5HVc4HUlbcCiNGgXZKIlyRCuoySY4eZAM5qCsBnU3acEJCABCaROgIslYnBwu+IEm7jkpL4jO5SABJZEAMsYAoiEGghA3CY3bdoU6wVyQYxAqnLDpRRLIRYj2CAWuNF16dKlWOOQDMq28hDAm+XChQvxRghxss1oCsJmUHefEpCABCSQOgHuoCMGubPOCVZBmDpiO5TAkghgEcQKQqZQSkYgBkmoQdIYRFCZ3EKXAgpBTOIcNtxmW1paohUVdgMDAzF7MomzEIYmzVoK6Xx8F88WvFr4P0G2WW4E8H+lkU1B2Eja7ksCEpCABDIjQLY+MotOTk7qUpUZZTuWQH0EEHsIHCxev/71r8OvfvWr+HfZ4gProzP/t+BG2Q2E4fHjx0NfX190I/3hhx8Cv3kk0bIVmwCx7iQVwrOFDSuhgrDYa+roJSABCUigwQS4Q84dVmoOYiHUnarBC+DuJLAAASx/CEESpSTuoSSN4bUyZAxdYOqpvYUoTDbYIRawsiZupFgLzaicGu6mdIRHC4llzp8/H11HsQY3smkhbCRt9yUBCUhAAqkTSFK2c7ecE6oJF1JHbIcSWDQB3B6JB6SOIOLl448/Du+//35Mr99o68eiB5/TLyAKEQok3UEYwhbBjdWQ3z+KnZtMK6eLV8OwCHu4fPlyeO+992LW3Ua6USsIa1ggPyIBCUhAAvklwJ1xki2Qnh0xaOxgftfKkVWHABezuIeeOHEifPLJJ1HIEBvF67alEUBsr169OvKlXAcigmykp0+fjiUqEIW24hF4+PDhqxhR3EZxE+YmQCOagrARlN2HBCQgAQlkQoALH4LwSc9OMhnFYCaY7VQCNRHg4hWxgvWK4vKUkTh48GD821jBmhDW/KGZiWdwxaWOIclncCPt7+8Pjx8/jtbCmjv0g00nQPgDMaEkmKFQPeVYGmVNVxA2ffkdgAQkIAEJ1EuAkyfxM8QO4m5jk4AEmkMAMcjFK26iuLx9/vnnYf/+/dEy2JwRVWeviIf29vbIm0eSlOAxgcXJLKTFOg5YLwQhiYT4f9Qot1EFYbGOE0crAQlIQAL/RwBr4J07d8L169djIhljBz00JNA8AgjBnTt3xgyiWKxwecNF1NYYAlhgiS388MMPY2zhd999F62FJNvSc6Ixa5DGXjiP4e3CuW1sbCwmXiIBU9ZNQZg1YfuXgAQkIIHUCXCBw51UCjZjHSTLqBc9qWO2Qwm8lQBWQYQfrqEkjSF5DNYNBKKtcQRwIWUtSOCDMMRKSJwhr1OKBxdSW/4JcB5jrUiQhqWQNVQQ5n/dHKEEJCABCTSBAHdRueDhLiqC8MWLF00YhbuUgAQQflgD//jHP8YEMohDRIitOQQo5YEg/M1vfhO6urqioLhw4YKCsDnLUddeEYUPHjwI3d3d0RWYxEFZNy2EWRO2fwlIQAISSJ0A6dUHBgZi/KDWwdTx2qEE3koAF0XKHhDnRKF54gUTMdiozIhvHWRFPwB/Ys8QEsRyIhBJUJK411cUS6GmTfZsEgThfk2sfGLtzWoSCsKsyNqvBCQgAQlkRgAXKFKtk0jGFOuZYbZjCcxJANdE6uFxsfrRRx+FTz/9NMY6aRmcE1fTXmSN2FgvBMWTJ09ishndR5u2JDXvGBFIYiA2znO4YbOGWTUFYVZk7VcCEpCABDIhgDvNxMRErLvFo00CEmgsASyDiME//OEP0TJoSYnG8l/s3nbs2BFYIxq1CnFFNOZ6sRQb+3nWhzh5BCGWQlyzFYSNXQP3JgEJSEACOSXACZJU6gTcDw0NxTveOR2qw5JA6QhQ646yBsePH4/ZLKk1iAVKF9F8LzXrRjzhBx98ED0qiLnm95PfUlt+CSAKyTiKq++RI0ei229W/9e0EOb3OHBkEpCABCQwiwDuoYhBUqnjNmqTgAQaQwB3UGLRuDDFRZRsorqINoZ9GnshU+WBAwdiV4iKr7/+Osam6XKfBt3s+qDOLtlGk5qSiaU37T0qCNMman8SkIAEJJAZgefPn8e7pWQXtUlAAo0hgIDYtGlTFIP/7//9v7Bnzx6tgo1Bn/peKGJP3Ce/pbgg4o6I54UtnwSw5pJxlCRqJAairEgWTUGYBVX7lIAEJCCB1Alw0ULmtf7+/uhGk/oO7FACEniDABYJhAN1Bk+cOBFjB4lnysp17Y0B+EKqBDZs2BDXk7WkfA9iA28LkpjY8keA8x5JgLASklgmK0FooZj8rb0jkoAEJCCBOQhwR5uLl8HBwTA2NjbHJ3xJAhJImwBisKOjI9a1++yzz2JpCcVg2pQb2x8in6RAuP0eO3Yslg9p7Ajc22IIUFqJervEfWbVtBBmRdZ+JSABCUggVQKIwJs3b76KpUi1czuTgAReI4Doo5YdiWOSOoNaBl9DVNg/krXF2kSdQuII8b5gM6Ywf8v68uXL6BVD7Dw3Ran3yf/NNJsWwjRp2pcEJCABCWRG4N69e6Gvry+6z5gyPTPMdiyBSIALTiyD7777bhQNiAcsS1oHy3OAEJNG5tH33nsv7N69O5B4xvXN3/riNopbL+dAso5m4d6rhTB/6+6IJCABCUhgFgEEINlFEYRZnAxn7c4/JVBpAoiClpaW8Lvf/S6cPHkylpZYvnx5pZmUcfKsM+uK2yjPyWSJaz6JTGz5I0Dd3Z6enmgh5P9nmk0LYZo07UsCEpCABFInwMUJJ0LSb+M26sVK6ojtUAKvESCjKCUKsBzt3LkzuqdZYuI1RKX5AyGIJZiYQsT/rl27tBLmdHWxEvb29kZrIQmB0mwKwjRp2pcEJCABCaROAIsgiWRwlyHbminSU0dshxJ4RQCBgCggCyXlJSg8bys3ARIHUY6CeEJuAmA15Diw5YvA1NRUuHr1ahSEnAfTDJ1QEOZrrR2NBCQgAQnMIkCiA2plmVl0Fhj/lEDKBJKMosQNHj9+PFCiwFYNAqtWrYolDbAU4kJKfKEtXwQQgdwgJbkMW5oJgBSE+VprRyMBCUhAAjMI4BZDXAuxg+Pj4zPe8akEJJAmASxCxCUdOXIkHDp0KLqKIhJs1SCAVZD1xyr84YcfRjdSkwjla+05H5JxFDFICYo0vWUUhPlaa0cjAQlIQAIzCHDyI8327du3A+4yNglIIBsCxAiSSfQPf/hDLDXB37oNZsM6z71u27YtlhnZsWNHzDqa57FWcWy4iQ4PD4eBgYEoDtNioCBMi6T9SEACEpBAqgS4G4qbKGm2nzx5kqp7TKoDtTMJFJwA1iHKDmAd5HHjxo0Fn5HDr5cAVuH29vZw9OjReDykXe+u3nH5vX8QQBCSYA0rIe6jaVkJFYQeYRKQgAQkkEsCnPgQg7jGkFk0zQD6XE7YQUmgCQSwAiICcBMldpAMo8QS2qpJAMswxwPHAqKQOFJcR235IMB5EG8ZkqzxSJmQNJqCMA2K9iEBCUhAAqkTwEKIawwZRtMMnk99oHYogQITwAJE7BjJRCg1gbXQVm0CiMKurq6wf//+cPDgwWgxrDaRfM0eUUiytf7+/liSKY3RKQjToGgfEpCABCSQKgHcYLjzSTF6trTcYlIdpJ1JoAQEsAjiKkq9QTJLIgZs1SaA1Xjt2rWBeEISzBBb6nGRn2MCQUgYxa1btxSE+VkWRyIBCUhAAmkTwCJIzUHcYsguqiBMm7D9SeAfBLZv3x4+/fTT0NnZqXXQg+I1Atws+Oyzz2JcKYLQJEOv4WnqH5wfb9y4kVr2bW8DNXU53bkEJCABCcxFgNgISk1MT08bOzgXIF+TwBIJEBdG8hCK0OMuaiKZJQIt4dc5Rogh5BjBdRSroS0fBPCgIcaexGuIw6XeNFUQ5mNdHYUEJCABCcwgkAhCahCaTGYGGJ9KICUCJI7hQp+6c1u2bAlr1qxJqWe7KQsBrILJcYJbMeJQK2E+VjcpyYQHDRt/L6UpCJdCz+9KQAISkEAmBKg9iIWQwHmbBCSQPgEu7k+ePBn27t3rRX76eEvVI/GlH3zwQbQiG0uYn6XlZikWQmIJiSlcSlMQLoWe35WABCQggVQJcIKjxASCkAyj1FmySUAC6RLAGkh82L59+2LsYLq921vZCKxfvz5akbEmd3R0lG16hZ7PxMREuH379pLPlQrCQh8GDl4CEpBAuQgQB8GdzsnJyegGk1aNpXJRcjYSWBoBrIO4iZJFkpITNgksRIC6hGSgpVYlSYhs+SGAIBwYGIiCcCnhFQrC/KypI5GABCRQeQJYBylEjxsMJ7elnOAqD1MAEpiHQJJIhiQhxoTNA8mXXyOAVfm999575WLscfManqb9QVgF2biJt+f8WW9TENZLzu9JQAISkEDqBAiMnykIU9+BHUqgwgS4iCdz5I4dO2LWSBPJVPhgWOTUV65c+cqqTHZarIa25hPgnIkYJLEMj/U2BWG95PyeBCQgAQmkTgAX0cHBwWghTL1zO5RAxQksX748Zo3E7Y9kMmSQtEmgFgIkk1m3bl2MIdy9e3d8Xsv3/Ey2BPCiQRQmJSjq3ZuCsF5yfk8CEpCABFIlQPwgSWTu3r0bYwhT7dzOJCCBGC9I+QCK0GPx0e3Pg2IxBDhesA7iOtra2rqYr/rZDAn89NNP8bxJqEW9TUFYLzm/JwEJSEACqRLAOkghelxfLDeRKlo7k0AkQPF5BOHmzZsD1kIFoQfGYgmQXObw4cMxyYwlKBZLL5vPIwgTC2G9cfcKwmzWxl4lIAEJSGCRBChGz0nt2bNn4Zdfflnkt/24BCTwNgJkFCVTJFYemwTqIcBNBcqVJHGE3lSoh2K630EQjo6Ohvv378dzZz2iUEGY7prYmwQkIAEJ1EkAQYi7KJbCek5ode7Wr0mg9AS4aCdeEDc/4gepK2eTQD0EcDWmbMnWrVtDV1dXTFJUTz9+Jz0C3EClXBP1e3Ebradck4IwvfWwJwlIQAISWAIBag8iCJeSOnsJu/erEigtAVz7uIjHqoO7qNlFS7vUmU+MmwtkqqWG5c6dOxWEmRN/+w64gYqVkCyjw8PD4fHjx2//0qxPKAhnAfFPCUhAAhJoDoFEENZzd7M5I3avEigGAeIFsQxyEW/cVzHWLM+jRBRu2bIlHlOIQ1s+CCAIb926VVcMvoIwH2voKCQgAQlUlgDuLlgFcXchoQx3Om0SkEB6BLhoRxDi5qcgTI9rlXvq6OiIotBstfk5CkjG1t/fryDMz5I4EglIQAISqJUAApATGTGEZBlVENZKzs9JoDYCWAixDmLVMQlIbcz81PwEOIbINoooJDbVmwzzs2rkO7iK3rlzR0HYSOjuSwISkIAE0iFA7cGhoaEY/2AymXSY2osEEgKIQWIGuXgnhlBBmJDxcSkEsDpTqJ7EMsSn2ppPgAzdJJXhBivF6hdzPtVltPnr5wgkIAEJVJrATEFYaRBOXgIZEMClj6yiWHS4cFcQZgC5gl1yHK1duzZanilnYms+AUQgcYRsWAsXU75JQdj89XMEEpCABCpNQEFY6eV38hkTQAxixcG1zyaBNAlgeSY2VUGYJtWl9YVVkARtxOP//PPPNXemIKwZlR+UgAQkIIEsCODmQrkJ3FxsEpBAugSwCioI02Vqb/8gkAhC6lva8kOAeHyK1C8mHl9BmJ/1cyQSkIAEKkeAu5lYCEdHR+uqnVQ5YE5YAoskoCBcJDA/XjMBrM4kK9q4cWPN3/GD2RPAQkgsoYIwe9buQQISkIAElkggEYPEO5Bd1IL0SwTq1yUwBwEEIdlFdRmdA44vLYkA8anEpuKWTKZR41OXhDO1LyMItRCmhtOOJCABCUggSwIIQsQg7i0Uo19MvEOW47JvCZSJABfrnZ2dCsIyLWpO5kIGWzKNklzG8hM5WZT/HUZS05ebrJxna2m6jNZCyc9IQAISkEDqBMiANjExEQPgF5MNLfWB2KEESkwgEYSrVq0q8SydWjMIYBFEFCIIcRvlua35BLjRyrmV+Pxa3UYVhM1fN0cgAQlIoJIEEkHIiUtBWMlDwElnSICLdVz6SPzBBbsX6xnCrnjXWAlxHeV4szWfAOdTxCCZRik/UUtTENZCyc9IQAISkEDqBBSEqSO1Qwm8IoAARAyyYR0kxssmgSwIcMOBTKMUq7c1nwBuooRh3Lt3L4Zl1DIifx1qoeRnJCABCUggdQIIQoLf2WqNc0h9EHYogZISQBCSUMZkMiVd4BxNC0HY3t6uhTBHa0L8oIIwRwviUCQgAQlI4E0CCECSyBD8ToZRXUbfZOQrElgKAQQh8YMKwqVQ9Lu1EMAKTXF6LYS10GrMZ16+fBlLT9Ra31cLYWPWxb1IQAISkMAMAghATliIQQLgtRDOgONTCaRAQAthChDtoiYC3HTAGq0grAlXQz7E+ZX4fGMIG4LbnUhAAhKQQD0EKEZPwDtxDorBegj6HQksTICLcy7Ssd7YJJAlAY414lStQ5gl5cX1rSBcHC8/LQEJSEACTSCgIGwCdHdZKQIkkcFl1HITlVr2pkwWQWgdwqagn3enCEJCMrAQEp7xthuvuozOi9I3JCABCUggKwJPnjyJ8Q1YCG0SkED6BJIso5YCSJ+tPb5OILEQmsn2dS7N/IuwDM6zCEJuwCIKF2oKwoXo+J4EJCABCWRCQEGYCVY7lcArArjvcaGOMLRJIEsCWgizpFtf31gEE1E4NTUVY/YX6klBuBAd35OABCQggUwIcMfy/v37MYYwkx3YqQQqTgBBiBg0rqviB0IDpq8gbADkOneR3HylDMVCTUG4EB3fk4AEJCCBTAhwkiKpzNtOUpns3E4lUBECuPDpxleRxW7iNLnxQKyqx1oTF2GeXdd6rlUQzgPQlyUgAQlIIDsCWAhJia0gzI6xPVebgBbCaq9/I2ePENQa3Ujite8LQci5liQzCzUF4UJ0fE8CEpCABFInQGzDs2fPQi1xDanv3A4lUBECiSDUalORBXeaEpiDQK0WwhVzfNeXJCABCUhAApkQINMZYhALIXcsCXq3SUAC2RBADCoIs2Frr/8kkCQweVtpg39+w2eNIpBYCN/mjaMgbNSKuB8JSEACEoiprx8+fBjTYb8tDba4JCABCUgg/wS4sVdLrbv8z6R8I+Tm6+TkpC6j5VtaZyQBCUiguAR++umnWCyXu5Y2CUggOwJYa/j/5o2X7Bjb8z8IKAjzeyRQ65ebsHjkLGTBNYYwv2voyCQgAQmUjgAXpw8ePIgWwtJNzglJIEcEuPjDTUxBmKNFKelQONa0EOZzcVkXRCGWwoXcRhWE+Vw/RyUBCUiglAS0EJZyWZ1UDglgteEC8G3ZBXM4dIdUMAKJhbBgw67EcBOxjlcOonA+K6GCsBKHg5OUgAQkkA8CCMLp6el4YsrHiByFBMpJgIt0LANaCMu5vnmaFccYv+0cc7b8EWBdHj9+vKBnjoIwf+vmiCQgAQmUlgAXDgrC0i6vE8sRAS4CsRByoW6TQJYEOMbIHq0gzJJy/X3PFIRaCOvn6DclIAEJSCAlAgjCR48eaSFMiafdSGA+Alz4YSFUEM5HyNfTIsBxxu+61ui0iKbbD78FrA9WQgVhumztTQISkIAE6iDABQMnJS4gbBKQQHYE+L/G/zNjCLNjbM//IMBxxu+6gjCfR8RMC+F8I9RldD4yvi4BCUhAAqkT4IKBO5UKwtTR2qEEXiPARSCJJBbKLPjaF/xDAnUS4Bjjd11rdJ0AM/5aYiHk90ALYcaw7V4CEpCABBYmwImICwZOSgrChVn5rgSWSoD/a5R4IbOgTQJZEuD3XJfRLAkvre/EQogVd76mhXA+Mr4uAQlIQAKpEsB1jcQD3E3WtShVtHYmgTcIIAhJ4MQNGC4I57MMvPFFX5DAIgkkLqNaCBcJrkEf5/8+YlALYYOAuxsJSEACEpifABcNWCsQg16czs/JdySQBgEuzrHacBHIzRj/z6VB1T7mIqCFcC4q+XktcR9fyFtAC2F+1suRSEACEig1AayDJh4o9RI7uZwRQATy/w5LocllcrY4JRoONx0mJyc9xnK6psnvAMJ9vhtDCsKcLp7DkoAEJFA2ApyMEve1ss3N+UggjwS4+MMqMDU15cV6Hheo4GPC8kQIADf6Hj58aFKZnK4nvwOcfxNBOJcoVBDmdPEclgQkIIGyEVAQlm1FnU8RCCAItd4UYaWKN8YkazRiUO+P/K4fAhDhvlD8voIwv+vnyCQgAQmUigAnI9zXuKtsk4AEGkOAC/X79+/Hi8HG7NG9VIUAv+ljY2MxVnUuq1NVOBRhnqwPccWcg+dK/qMgLMIqOkYJSEACJSCQCEIvHEqwmE6hMARILDM6OhovBAszaAdaCAJ4fdy7dy8KwkIMuOKDRAgStqEgrPiB4PQlIAEJNJMAFw9aCJu5Au67igRIKDM8PKwgrOLiZzxnBWHGgFPuHhdfBWHKUO1OAhKQgAQWRyCpQ6jL6OK4+WkJLIUAF4C4jOI6aqbRpZD0u7MJ4PWB9ZkYQlv+CSQWwrl+B3QZzf/6OUIJSEACpSDAxQN3lHUZLcVyOomCECCpzMTERCw9gYXe/38FWbgCDJPjCUGIW7It/wS0EOZ/jRyhBCQggdITQBBycaqFsPRL7QRzRoD/c1gJx8fHFYQ5W5uiDgcxiDsySWWwPtvyT0ALYf7XyBFKQAISKD2BxEKoICz9UjvBnBHAMkDyDy7etRDmbHEKOByOoQcPHsTjCXdRfttt+SeghTD/a+QIJSABCZSeAHELuoyWfpmdYA4JJIIQK6GCMIcLVLAhcQyNjIyEoaEh41ILtHaJhdAsowVaNIcqAQlIoGwEOAlxJ9kL0rKtrPPJOwH+73EBT7wXN2W00ud9xfI9Pn7DOZYQhHOJi3yPvrqj4/8952BuEM1uJpWZTcS/JSABCUggEwKchLASejGaCV47lcC8BPg/h7tokhFyriyD837ZNyQwgwBikN9yjqW7d+8qCGewyfvTRBDOdQ5WEOZ99RyfBCQggZIQABnv4gAAQABJREFU4E4yF6JaCEuyoE6jMAT4P8f/v6mpqdDX1xcfCzN4B5orAhxHJJHhBgPZa+eyNuVqwA7mFQGEIOunIHyFxCcSkIAEJNBoAlw4cDJSEDaavPuTQIj/70gEcu3atTA5OSkSCdRFgBITd+7ciceQMeF1IWzalzj3zuelo4WwacvijiUgAQlUiwBiUAthtdbc2eaLAGUCent7FYT5WpZCjQar4OXLl2OWUW/uFWrpomVQC2Gx1szRSkACEigVAS4csBDqXlSqZXUyBSNAHVDivsg2ijj0/2PBFrDJw+V3nFqWPT09uh03eS3q2T2uoloI6yHndyQgAQlIYMkEEjHIyYjNu8pLRmoHEqiLABeDuI2SEIS6hPxtk0AtBLh5gLsox83t27fj81q+52fyQ4Bzr4IwP+vhSCQgAQlUikByV5ILCsVgpZbeyeaUAOUCrl+/Hp49e5bTETqsvBGgXMHAwEAsNYEwxPXQViwCybmYx9nNGMLZRPxbAhKQgARSJZBYCBWDqWK1MwnUTWB4eDgmlyHrqFbCujFW6oskkCFD7eDgYHQ19ve8eMuPEDSGsHjr5oglIAEJlIJAIgjnuitZigk6CQkUjAAxhLdu3Yruf5QQsElgIQL8dnOc3LhxI1oIF/qs7+WXAOfi+VxGV+R32I5MAhKQgATKQICTkHeTy7CSzqEsBLjAf/jwYUwOsm7dutDW1laWqTmPDAhgScYySEIikhHZikmA//fzCUJdRou5po5aAhKQQKEIcCJSFBZqyRxsiQnwfxGLz9WrV2NcGPFh/B+1SWAuAghBypVQcoJjxVZMAvy/J5Z/rv/rCsJirqmjloAEJFAYApyEFISFWS4HWhECJJQhJowi4yYJqcii1zFNfr/7+/vD2bNno1W5ji78Sk4IJOfiuYajIJyLiq9JQAISkEBqBJKTEI82CUggHwS4SUOCCRLMnDt3zrpy+ViWXI2CGwXEDVJmYmxsTOtgrlan/sHMdS5WENbP029KQAISkECNBLQQ1gjKj0mggQT4fzkyMhLOnz8fE8zgDjjXxWIDh+SuckKA44B4wcuXL0e3YmJOcTe0FZ/AO++888YkFIRvIPEFCUhAAhJIkwAXFlx42iQggfwRGB8fD1euXIlWIGLEFIT5W6NmjIjfbI6N06dPRytyM8bgPtMlgBBctmxu6WeW0XRZ25sEJCABCcxDwAvNecD4sgSaSACrIFkksQRt3LgxZhxdvXp1mMuK0MRhuusGEkAMDg0NRXdRXIpxHbWVm8DcMrHcc3Z2EpCABCTQBAJeYDYBuruUQA0EiCVEEHZ3d8fso7oG1gCtpB/hxh03CUg4hOX4wYMHsVRBSafrtP6PgILQQ0ECEpCABDInMJ+bSuY7dgcSkMBbCSACiBGj1hzZJEdHR9/6HT9QTgJPnjyJcaU9PT1RFFK3zlYuAnPdnFUQlmuNnY0EJCCB3BFI4hbmOgnlbrAOSAIVJJBYhRCCZBwdGBgIz58/N/a3YscCrqL37t2LluJbt27FzKLGf5frIJjvPKwgLNc6OxsJSEACuSOgIMzdkjggCcxJgFhCBCFiAFdBXElt1SDATQHW++bNm+Evf/lLoBg9r9nKRUBBWK71dDYSkIAECkNAQViYpXKgFSdA7ODTp08D7oJ///vfA1lHjSesxkHx+PHjcOnSpdDb2xvu378fLcTVmLmzhIBZRj0OJCABCUggcwLEEM53ZzLznbsDCUigJgJYhNiwEuEquH379kDG0fb29pq+74eKSYAkMpSYoB7l9evXY2KhYs7EUS9EYKFzsC6jC5HzPQlIQAISWDIBLYRLRmgHEmgoAayEuAx+99130WKk62BD8Td8Z1gEr169Gi3DrLutvASWL18+581ZLYTlXXNnJgEJSCAXBBSEuVgGByGBmgngJkrWUURCS0tL2Lp1a+js7AwbNmyouQ8/mH8CZBAlqyjlJZLsstwMsJWTAJ46K1asmLM4vYKwnGvurCQgAQnkhgCCkJPQQu4quRmsA5GABCIB3AgpTo4IxGX0448/DuvXr/f/cUmOD6y+iEEKz+MqeurUKZMIlWRt55sGgnDVqlUBK+HspiCcTcS/JSABCUggVQIz70oiCnU/SxWvnUkgUwIjIyPh22+/DevWrYsXk1gK57qgzHQQdp4qAX6DsQQSK/rFF1/EeoNYhf1tThVz7jrjXLxy5UothLlbGQckAQlIoAIEEIFcQLJxQiJZhRceFVh4p1gKAtPT09GSRAZKEsxwQblx48YoDksxwYpNgt9erL+3b9+OMYMXL16M7sHWGyz/gaAgLP8aO0MJSEACuSaQuI3iOkrcioIw18vl4CTwigD/V6lPR4wZLoaIwb1794bNmze/+oxPikMAS+CjR4/C999/H86cORMQ/JYWKc76LWWkCML5XEbNMroUsn5XAhKQgARqJoCFEOuCsYQ1I/ODEsgFAUQhdeqwKuFi2N3dHcsUcHPHVgwCrCHrdePGjfDXv/41JpIZGxuLYtAbdMVYw6WOMhGEPM5uxhDOJuLfEpCABCSQCQGsgyaXyQStnUogcwK4FCIgsCxxc4dkM/v37w+tra3GFGZOf2k7QPA9f/48TE5OxuLzf/vb3+JaYvG1VYdA4jLK/9/ZTUE4m4h/S0ACEpBAJgS0EGaC1U4l0DACCAvcR3t6emJSkj/96U/h0KFDFq5v2ArUtyNiBskmihC8fPlyuHfvXrQW1teb3yoqAS2ERV05xy0BCUigRASwDuoyWqIFdSqVI4AgZBsfH4/CsK2tLSYoef/992NJCpLO2PJDgNhABDxuoiQFIoEMWWOfPXuWn0E6koYRSCyEuow2DLk7koAEJCCB2QSwECIKbRKQQLEJIDSmpqaixenBgwcx0cyuXbtiFtJiz6xco0cMEvv5ww8/xNIhExMTWgbLtcSLmk1iIdRldFHY/LAEJCABCaRJAOvgmjVr5qyBlOZ+7EsCEsieAJZCXBGxPv3rv/5r+OSTTwKWwh07dliSInv8C+6BeE+yh7I2ZBLt7e01m+iCxKrxZiIItRBWY72dpQQkIIFcEiDdNS5lc52McjlgByUBCcxLAEGIpfD+/fvRhZTswVikeJ3i9ZSnsDWeAO6giMH+/v5w4cKF8N1338UyEySVsVWbAJZBbsrO5amj7061jw1nLwEJSKBhBBCEWggbhtsdSaAhBBJhSKIZYgvZfvWrX4Vjx45ZYqYhK/D6TuCPRfCbb74JN2/ejOLQovOvM6rqXwjB9evXx1j+2QwUhLOJ+LcEJCABCWRCIBGE1iHMBK+dSqCpBJ4+fRpGR0dj4hIshQ8fPoxlKTZt2qQLacYrgyiHN3UiEYNXrlwJt27dCsR3KgYzhl+g7rEQrlu3TgthgdbMoUpAAhIoHYFEEOoyWrqldUISiASoa4dVCnGSlDagLAWikBjiuZJZiK5+Aol1FjE+ODgYk8d0d3dHMVh/r36zrASwECoIy7q6zksCEpBAQQiYVKYgC+UwJbBEAlimrl+/HoXhkSNHwscffxzIQoowtKVHgHhBWJ89ezaWlcAqSPF5mwTmIqDL6FxUfE0CEpCABBpKILEQ6jLaUOzuTAINJ0D20ZcvX8aSB1ivSGiCMNy3b1/o6uqKscRaC+tbFqyC8CVWkGLzuIlSYzBxESXRj00CcxHQQjgXFV+TgAQkIIGGEkAQmmW0ocjdmQSaRiARLgiWgYGB6Ep64sSJ8Pvf/z5s2bJF99E6V4aYQGoLUmSekhLnz5+P2V15HeY2CcxFgBuxiSDEW2d2M6nMbCL+LQEJSEACmRBADK5du9ayE5nQtVMJ5JNAEuc2MjIShQtlKvbv3x+3nTt3htbWVn8Talg63EOxCvb19YVr165Fy+Ddu3ejtVAhWAPACn8EMcgNWbb5LPMKwgofIE5dAhKQQCMJIAgJaDepTCOpuy8J5IMAsW4kmyH5Ca6OiJtHjx6F7du3h5aWlvjbwG+E7Z8EyNaKeygWwbGxsdD/f7UFL1++HNnxvk0CbyOAIKTkE/+/eM42uykIZxPxbwlIQAISyIQAJyRqIM13hzKTndqpBCSQGwK4NSJwcCPFUkjsG3GFH3zwQTh8+HDYtm3bnBeruZlAgwdC1lZKecAJqyBxghSdJy7TchINXowC7y4RhJyD5xKDTE1BWOAFdugSkIAEikSAu5OJIOSkpJtTkVbPsUogHQL8v8f9kUQzCB42RM7Q0FDYvXt3TDqzefPm0N7eHr0J5ruATWc0+esFa+DU1FTAHRQmWFOJwUQYTkxMBJPG5G/N8j6imYJwvrEqCOcj4+sSkIAEJJAqAQQhMYQEtOM26oVNqnjtTAKFIpAIQwQP29WrV6P76LFjx2JGUn4j+M3g94JkGFzUllEcwoHfQtw/eSTWEkvg6dOnYyIe/rZJYCkE+L/EuTdxGZ2rLwXhXFR8TQISkIAEMiGAuyhWQk5MWAZsEpCABCCAZYz4QqyFV65cCVgJ9+7d+2rbsGFDTIpRJlqIQCylzJsNSyAC8N69e7GeIExsElgqAW6kEL/PNl9TEM5HxtclIAEJSCB1AokgJJZBQZg6XjuUQGEJULeQDUGIKOI3AmGEqyR/U9S+ra0t3lBCHHJjCcthUZJUYQlkI/6P3z4S7JBoBzdQXEMTUUhheYVgYQ/jXA6c/yP8n0EQzmdlVxDmcukclAQkIIFyEkgEIRZCmwQkIIG5CGA5QxSRSOXGjRsxERUF7Xfs2PGqZAXWQy5yi/JbghhkXmQLJalOMjesggjhxGWUz9kkkCYBRGByE2W+fhWE85HxdQlIQAISSJ0AgpATE3f/bRKQgATmI5AIKIQSDWsh1jWykxJviLUQqyEbCWgoXcG2cePGV7HK8/Wd9esIPEpqkByGDasfG8+xgPKIZZBHPsdcFYJZr0p1+08shFjVtRBW9zhw5hKQgARyQwBByAWbgjA3S+JAJFAIArhZsuFCSuPCljjDzs7OsHXr1vjY0dER2JK6hriUsvG7w0Xx7Edeo5/kIjl5nAkkEWs8UuoheeQ5SWCSLbHw8YhwRfAl7q5kDEXQImZ535IRMwn7PGsCCsKsCdu/BCQgAQksigAXZK2trQsGty+qQz8sAQlUkgDCjBg8RCKCK8lGyiOWEH5nkrjDxF2O12duuJvyeX6Xkm02TMQbtRNJ/sIj1j+eI/qSOECsfowlecTqx2fY+DzfS77LuG0SaCQBbnQk/wfm268uo/OR8XUJSEACEkidAHfrFYSpY7VDCVSSAGKLDVE4s61atSq6jeKNgAAk5T5eCcmGEOR5IiKxoCQb/XABjUBEDGLRY0v2hUUwEXmJ1ZJ4x5nPEYJ8V/E3c1V83gwCHMucd0kow/+DuazgjEtB2IzVcZ8SkIAEKkpAQVjRhXfaEmgggcQih9WunoYYRFQi/BCDNgkUlQA3OjiWEYQLJWBSEBZ1hR23BCQggQISUBAWcNEcsgQqRiBxE+XRJoEiE8ASTkwt1vD5rIPMb1mRJ+nYJSABCUigWAS4804sA3creb7QCapYM3O0EpBAWQjg6olrqC6fZVnR6s4DQUiYBoJwoaYgXIiO70lAAhKQQKoEcF8hpgdBiBsLf9skIAEJSEACEkifQCII8c5ZqHkmXoiO70lAAhKQQKoEsAgiAollIOHD205Sqe7cziQgAQlIQAIVIsDNV+p0cgN2obawXFzom74nAQlIQAINIYDbErEsSYIDkhzgzsRriVvTTNcmRFcivBBfiC7cM3lMtma4aiZuWKRrZy5aCBty+LgTCUhAAhKoKAEyi1Kv820uowrCih4gTlsCEigOAQQgac0pbMw2NjYWa15RAyupd4XAoiH0EH+4iXAiIF6vra0t1uOigDNFm3lEKDZaFCJgp6amwsWLF8OlS5fiPJJxF2c1HKkEJCABCUigGAQI0eC8v1CGUWaiICzGejpKCUigQgSwpCH0SJk+MTERt8nJyTA+Ph54RFTxPnWvsLaRYj2xFCaWQX782RCFuGaSZSwRhpwccCFh484hn3nb3cOl4Ef0PXv2LAwMDISbN29GMdjf3x+LNs+0bC5lH35XAhKQgAQkIIHXCSSCUJfR17n4lwQkIIFcE0jcKu/fvx+uX78erWmIqLt378aMd7UKKAojz9UQfgjAQ4cOhffffz+cOHEibN269VUsX9pWQ8aLGMSy+c0334RTp05FgatlcK7V8TUJSEACEpBAegSIIeTGr4IwPab2JAEJSCAzAriFTk9Ph1u3boWrV6+GoaGhKKKwCGINRFjVKgYXGiSWRKyKWOiwNPb29oZdu3aFffv2hYMHD0Z3UkRjGsIQyyX7uXbtWrQKYiFkjozBJgEJSEACEpBANgSS0BEshNwEfltGb11Gs1kHe5WABCRQEwFEHrGAuIPeuXMnXL58OXR3d0crGi6haTfi+NjYHxsCdHBwMIyOjkbhuX///mgx5CTytjuKc42N+SD4cHelT2IFe3p64oZVMA1RO9d+fU0CEpCABCQggX8QIIEcoSLkEaglJERB6JEjAQlIoEkEEEdsN27cCOfOnYvuobiK4mLZKCsa4pB9IuBwTcWV9He/+120GHZ1dS2aDOMmAQ6JY7777rtw+/btGPeoGFw0Sr8gAQlIQAISqIsAIhBXUW7u1tIUhLVQ8jMSkIAEUiSACMRFlLg63EOxCvb19cU4QcRgo61ojIUtEW3J2I4cORJ27twZi8jXMn0sjsPDw3FOzAuhi4sorqM2CUhAAhKQgAQaQwBBuGnTJgVhY3C7FwlIQAKLI4DYw4pGbCCi6S9/+UuMFySer9kNQTgyMhJdPRkPsYa4jZJ0hjIWczXmw/cQsrif4u6KZRBxyOs2CUhAAhKQgAQaSyCxEOIyWkvTQlgLJT8jAQlIICUCiCTcM7/66qtw4cKFWIoB4ZWnhsgjnpFMpcQxnjx5MmYjnZ1oJhGDfPb8+fNR4CYuoo1yec0TN8ciAQlIQAISyAMBbubqMpqHlXAMEpCABGYQQDwRr4dLJZk9EYPE7CUZRGd8NBdPGRfiFRFItjJqGRJTyCMNiyDuoGQOZT5YBplbHiyduQDoICQgAQlIQAJNIoAg7OzsfHXOftswtBC+jZDvS0ACEkiBQGJNQzz927/9WxgbG4vWtxS6zqwLLITEATJ2hOHnn3/+6uRCZlQE7X/+53/G+EesnnzOJgEJSEACEpBA8whwvk4EoS6jzVsH9ywBCUjgDQJYzsgkimWQ+LqiJFpB5JH85syZM6G1tTVmEMWNlCQ4xEBiISSrqGLwjSX3BQlIQAISkEDDCSAC29vbY0I4yk/U0mr7VC09+RkJSEACEpiTAALq7t274ezZs+H69etRQM35wZy+iDUQ0YdbKJZN3EkRhBSdVwjmdNEclgQkIAEJVJIA9QeJH1y9enUM+agFgoKwFkp+RgISkMASCBBbR2kJ3C8nJiaW0FPzvorwQxDi8kosJO6kisHmrYd7loAEJCABCcxFAOsg8YO1WgfpQ0E4F0lfk4AEJJACAYQTNf0QgpcuXYoJV/i7iA3xh5XQJgEJSEACEpBAfgkoCPO7No5MAhKoIAGydOJuiXslljWsajYJSEACEpCABCSQFQEEYUdHhxbCrADbrwQkIIHFECB5DElkhoaGYhIZXSwXQ8/PSkACEpCABCSwGAJkGG1ra4suo5SMqrXpMlorKT8nAQlIYBEEcBdFEF68eDFm6bRQ+yLg+VEJSEACEpCABBZFgJjBNWvWxIzgZBpVEC4Knx+WgAQkkC4BLIG4iyIISSZDVk6bBCQgAQlIQAISyIoAYpDsoohB6hBiLay1Lav1g35OAhKQgARqI0DiGNxE2Z4+fRq0DtbGzU9JQAISkIAEJFAfgXXr1oUdO3aE9evXL0oMsjcFYX3M/ZYEJCCBeQkgCAcHBwPlJrAU4j5qk4AEJCABCUhAAlkRQAju2rUrCsLF7kNBuFhifl4CEpDAWwggCBGDIyMj1up7CyvfloAEJCABCUhg6QRwFd2zZ090GV1sbwrCxRLz8xKQgAQWIJDED967dy8WoTez6AKwfEsCEpCABCQggSUTIIEMgrBeC6FZRpe8BHYgAQlI4J8EcA998eJFFINTU1NaCP+JxmcSkIAEJCABCaRMgOQxK1euDC0tLWHbtm2Lqj+YDEULYULCRwlIQAIpEHjy5EnMLvrs2TNjB1PgaRcSkIAEJCABCcxPADG4ZcuWWHuQ0hOLyS6a9KqFMCHhowQkIIEUCJBVdHJy0kL0KbC0CwlIQAISkIAEFiaACNy6dWvo6OgIy5bVZ+ur71sLj8t3JSABCVSWAJbBBw8exOyilYXgxCUgAQlIQAISaAgBBCGuop2dnXXvT0FYNzq/KAEJSOBNAsQP4jZq7cE32fiKBCQgAQlIQALpEsBlNLEQ1tuzgrBecn5PAhKQwBwEqDuI26i1B+eA40sSkIAEJCABCaRGAOvg2rVrQ1dXV2hvb6+7XwVh3ej8ogQkIIE3CSAEqUOoIHyTja9IQAISkIAEJJAeAUpNIAY3btwYVq1aVXfHCsK60flFCUhAAm8SoO6gYvBNLr4iAQlIQAISkEC6BFpbW8P27dvDunXr6k4ow4gUhOmui71JQAISqCvls9gkIAEJSEACEpDAYgjgJkox+jVr1izma298VkH4BhJfkIAEJFA/Afz5cduoN/Vz/Xv2mxKQgAQkIAEJVInA5s2bw969e2Mc4VLmbR3CpdDzuxKQgARmEUAQcqdOQTgLjH9KQAISkIAEJJAKgeXLl8ebzwhCMoyuXr16Sf0qCJeEzy9LQAISeJ0A1sH169cHhKFNAhKQgAQkIAEJpE2Aaw3qDlKMnjjCd955Z0m78IplSfj8sgQkIIHXCZD+ua2tTUH4Ohb/koAEJCABCUggJQIkkcFVFAthGh5JxhCmtDB2IwEJSAACiSDEfWOpd+wkKgEJSEACEpCABGYTQBDu378/CsLZ79Xzt4KwHmp+RwISkMA8BIgfJOsXbqNLqQk0T/e+LAEJSEACEpBAhQlws5lrjH379oVNmzalQkJBmApGO5GABCTwDwJJUhncRikUq5XQI0MCEpCABCQggTQIJGIQIUgMIZbCNJqCMA2K9iEBCUhgBgFEIT/U/GArCGeA8akEJCABCUhAAksiwLUFmUVbWlpS80RSEC5pSfyyBCQggTcJIAgpFLt9+3YF4Zt4fEUCEpCABCQggToIcJOZawuuMdLMZq4grGMx/IoEJCCBhQjwI71jx46wbdu2sHLlylQygC20P9+TgAQkIAEJSKDcBBCD1B/k2oJrDAVhudfb2UlAAgUnwI807hzcxSOOEFFok4AEJCABCUhAAvUSQBDOvL5QENZL0u9JQAISaAABfrTJMErB2Pfffz9mHW3Abt2FBCQgAQlIQAIlJcAN5j179sRSEyST4VojrabLaFok7UcCEpDADAL8UFMw9sMPPwxdXV3RbTTNH+8Zu/KpBCQgAQlIQAIlJ0D28sOHD8eEdVgH07ymUBCW/OBxehKQQPMItLa2Rgvhzp07YzawZcv8yW3earhnCUhAAhKQQHEJkF302LFjAWGYdvPqJG2i9icBCUjg/whQpJ7yExSP3bt3b1i9erVsJCABCUhAAhKQQM0EuJm8du3aGIbCtQRF6dNuK9Lu0P4kIAEJSOAfBHDnICPYoUOHwqNHj8Lg4GB48uSJeCQgAQlIQAISkEBNBLiOaG9vj+EnW7Zsqek7i/2QgnCxxPy8BCQggRoJIP4mJyfDxYsX46YYrBGcH5OABCQgAQlIIBLA22j//v2x1ESacYMz8SoIZ9LwuQQkIIElEvif//mf8Msvv0SL4MjISLh161a4cOFCuH79enj27NkSe/frEpCABCQgAQlUhQACMBGE1B/MqikIsyJrvxKQQCUJIAixBF66dClaBc+fPx+mp6ejGOQ9mwQkIAEJSEACEqiFAO6ixAwSO5iVuyjjUBDWshp+RgISkMBbCPz888/h6dOnMU7wxo0bobe3N1oHR0dHo8XwLV/3bQlIQAISkIAEJPAaAWIHd+3aFUtNkFgmq6YgzIqs/UpAApUh8NNPP0Wr4L1798Lp06fDt99+G8bHx6NArAwEJyoBCUhAAhKQQKoEsAoeOHAgUJQea2FWTUGYFVn7lYAEKkEAN9Dbt2+Ha9euRRfRgYGBKAZfvHhRifk7SQlIQAISkIAE0idA/CBxg0eOHAnr1q1LfwczelQQzoDhUwlIQAK1EEAE4iJKbCBWQeIFL1++HN1EiR8kqYxNAhKQgAQkIAEJ1ENg5cqVMXYQQbh9+/bM6xgrCOtZJb8jAQlUmgCC8Pnz56Gvry98+eWXMVYQYYjrqIljKn1oOHkJSEACEpDAkglgEdyzZ0+0ELa2tgaK02fZFIRZ0rVvCUigdASmpqbC3bt3o0WQUhIkkMFS+PLly9LN1QlJQAISkIAEJNB4AojA48ePh61bt2YuBpmdgrDxa+weJSCBghHA6ofge/z4cbQGXrlyJfzwww9RGGIptElAAhKQgAQkIIE0COAuunnz5vDee++Fjo6ONLp8ax8Kwrci8gMSkEDVCeAKSvkIagoSL6hVsOpHhPOXgAQkIAEJpE8A19BNmzbFuEHiB6lB2IimIGwEZfchAQkUkgDWv8QqiHsoiWMGBwfD2NhYIefjoCUgAQlIQAISyC8BSkvs3r077Nu3L4rBFSsaI9Uas5f8cndkEpCABN4ggIsomUIfPnwYhoaGwhdffBG6u7vDgwcPzCD6Bi1fkIAEJCABCUhgqQQoM4EA3L9/f6w92CgxyLgVhEtdPb8vAQmUigBikNIRt27dCsQKIgRJIoOl0AyipVpqJyMBCUhAAhLIDYHVq1dHd9GdO3eGrq6uTAvRz560gnA2Ef+WgAQqSQCLIIljxsfHo1Wwp6cnCsKrV69GIagYrORh4aQlIAEJSEACDSFAZlFcRRGDGzdubMg+k50oCBMSPkpAApUmgBjEJfTHH3+M2/DwcHj06JEuopU+Kpy8BCQgAQlIoDEEtmzZEj788MPQ3t7emB3O2IuCcAYMn0pAAtUjgGWQovK3b99+VVtwYGAguoiSXdQmAQlIQAISkIAEsiJAIpm1a9fGzKKHDx8OLS0tWe1q3n4VhPOi8Q0JSKDMBBCCZBElccy1a9diSQlqCxI/+PPPP5d56s5NAhKQgAQkIIGcEKDuYGdnZ9ixY0fYtWtXILlMo5uCsNHE3Z8EJNB0AokYJD7w3Llzoa+vL+Ai+vTpU11Em746DkACEpCABCRQHQLUGjxx4kSMH0QMKgirs/bOVAISaBIBsoVOTEyE/v7+6CJK8pj79+9HF9EmDcndSkACEpCABCRQQQJr1qwJHR0dAVdRCtE3QwyCXQthBQ8+pyyBqhIgUyhiEBH4l7/8JWYTxUXUJgEJSEACEpCABBpNgGyiCEGyiyIMm9UUhM0i734lIIGGESAmcGxsLNy4cSNaBYkZHB0dDS9evGjYGNyRBCQgAQlIQAISmEkAIXj8+PGA22izrIOMR0E4c1V8LgEJlIoAWUJJHINL6M2bN8OFCxcCcYMUmreuYKmW2slIQAISkIAECkNgxYoVYdWqVWHPnj3RXZQso81sCsJm0nffEpBApgRIEjMyMhL+9re/xSLzCEEEomIwU+x2LgEJSEACEpDAAgSIHaTuIFlFcRlFIDazNXfvzZy5+5aABEpLIBGCuIhiEcRFlFqDxAsqBku77E5MAhKQgAQkUAgCFJ8/efJkFIOUnWh2UxA2ewXcvwQkkAoBhB4bYhDx193dHc6cORMfiSFUCKaC2U4kIAEJSEACEqiTAHGCWAOpO/jRRx+Frq6uOntK92sKwnR52psEJNAkAsQLYgFEBF66dCnGDI6Pj8ci84rBJi2Ku5WABCQgAQlI4BWB5cuXv8oqSiH6DRs2vHqvmU8UhM2k774lIIElE8D69/DhwxgrePv27XD+/Plw/fr1WF4CkWiTgAQkIAEJSEACzSaAdZBEMgcPHgyHDh0KLS0tTY8dTJgoCBMSPkpAAoUkgOgbGhoKp06dCl988UW0ElJOQqtgIZfTQUtAAhKQgARKSWDZsmWBbKLHjh0L7733XsBamJemIMzLSjgOCUigZgK//PJLdAW9c+dOTBhz5cqV0N/fHx4/fhwQiIrBmlH6QQlIQAISkIAEGkCArKJHjhwJ27dvb3rdwdnTVRDOJuLfEpBArglg/UP4UVuQxDHUFqTG4PT0dK7H7eAkIAEJSEACEqgeAVxFsQYiBE+cOBETyuA6mqemIMzTajgWCUhgQQJY/h48eBCtgl9//XUYGBgIJI6htqBNAhKQgAQkIAEJ5I0AYnDdunVh9+7dURBu3Lgxb0MMCsLcLYkDkoAEZhNACE5NTQUKy1NTMKktiFUQi6FNAhKQgAQkIAEJ5JHA+vXrY8zg/v37Q2tra65iBxNeCsKEhI8SkEDuCCAEySL67NmzQLwgJSXOnj0bLYPGCeZuuRyQBCQgAQlIQAIzCJBIpq2tLXz44Ydh3759uckqOmOI8amCcDYR/5aABHJDgLqCFJlHBGIZpKwElkLFYG6WyIFIQAISkIAEJDAPAcTgrl27woEDB8LmzZvn+VTzX1YQNn8NHIEEJDCLADGBxAoSI9jX1xfOnTsXS0vwmk0CEpCABCQgAQnknQDJZBCD7777bujq6opxhHkds4IwryvjuCRQUQJY/4gNpJTEd999FzOJ4jJqkfmKHhBOWwISkIAEJFAwAklmUeoNfvTRR7kWg6BVEBbsAHO4EigrAQQfwm9m0pjBwcFYaJ66g7qJlnXlnZcEJCABCUigXAQ2bdoUYwaJG+T5ihX5llz5Hl25jg1nIwEJzEEAsUemUGIDR0dHw48//hh6enqii6hWwTmA+ZIEJCABCUhAArkkkFgGKUL/ySefhJ07d+beOghIBWEuDycHJYHqEEAMUk7i/PnzUQxScJ5YQbKL2iQgAQlIQAISkEBRCJBVlNISe/fujYKwpaWlEENXEBZimRykBMpFAPdPtpGRkZg4JqkrePPmzWgtVAyWa72djQQkIAEJSKDsBLAOrlmzJiaRIXYQV1GK0hehKQiLsEqOUQIlIoAQfPnyZSCTaG9vbzh16lRMHPPw4UPjBEu0zk5FAhKQgAQkUCUCiL+NGzfGJDIIQv5GJBahKQiLsEqOUQIlIUC8IO6gt27dirUF+/v7w/DwcHj69KlisCRr7DQkIAEJSEACVSSwbdu2cPTo0bB79+7oNloUMchaKQireMQ6Zwk0gcDjx49j4hjcQkkac+bMmSgOySxqk4AEJCABCUhAAkUkQNzgypUrw549e8LJkydjzcHVq1cXaioKwkItl4OVQDEJ4CZ679696BpKbUEsgwhBLIY2CUhAAhKQgAQkUFQCiMG2trZw4MCBcOLEiRhHWLS5KAiLtmKOVwIFIkCc4MTERKwteP369XDjxo2Q1BZEJNokIAEJSEACEpBAUQngFtre3h4+/fTTcOjQobB27drCxA3OZK4gnEnD5xKQQCoEyBJKOQmsgojAb775JloFx8bGUunfTiQgAQlIQAISkECzCaxbty5s3749lpggdhD30SI2BWERV80xSyDnBMgYOjAw8KrIPLUFnzx5kvNROzwJSEACEpCABCRQGwGsg7iJEjdIAfoNGzbU9sUcfkpBmMNFcUgSKCIB4gFxESVrKFlEcRGlrMTQ0FAsM6GLaBFX1TFLQAISkIAEJDCbAEljEICUl2CjAP2KFcWVVcUd+eyV8W8JSKBpBJLaglNTU7Gu4NmzZwPF5hWBTVsSdywBCUhAAhKQQEYEEIO4iL7//vvh8OHDhYwbnIlGQTiThs8lIIFFEyBWECF4+fLlmEWUDKLEDtokIAEJSEACEpBAmQjgJrpq1aqwb9++8Kc//Sns2LGjFNNTEJZiGZ2EBBpPAOvf9PR0FH+IwHPnzoVLly4F6g2+fPmy8QNyjxKQgAQkIAEJSCBDAohBROCRI0fCBx98EEtMFKkA/XxoFITzkfF1CUhgXgKIQWIG+/r6wvnz52ORecpLUFtQN9F5sfmGBCQgAQlIQAIFJYDwW79+fcwoevz48fi8DGKQ5VAQFvSgdNgSaAYBRODTp09johiSxrCRQIYsoriOKgabsSruUwISkIAEJCCBrAl0dHSEgwcPhnfffTds27atsCUm5uKkIJyLiq9JQAJvEMANlNIRIyMj4cKFC+Grr74K4+Pj0UX0jQ/7ggQkIAEJSEACEigBAayAy5cvD7t27QpYBvfu3Rva2tpKMLN/TkFB+E8WPpOABOYhgOXv7t274dq1a4EMordv3w4UmccqaJOABCQgAQlIQAJlJUCJifb29phR9KOPPgobN24s3VQVhKVbUickgfQI/PTTT4Ei89QWpIzElStXopsoWUVxH7VJQAISkIAEJCCBshKgtiCuolgGSSTT1dVVKlfRZN0UhAkJHyUggdcIYBXEAjgwMBD++7//OwpCrITGCb6GyT8kIAEJSEACEighAVxFsQ7iKvrnP/85bN26NbqOlnCqJpUp46I6JwkslQBWQRLFdHd3h97e3pg4BqugYnCpZP2+BCQgAQlIQAJ5J4AYXLlyZfjwww9jVtHNmzfH+oN5H3e949NCWC85vyeBkhFA7OEiSm3BwcHBWFLi1KlTUQxaTqJki+10JCABCUhAAhKYlwDlJTo7O2Otwffffz9s2LChtNZBICgI5z0UfEMC1SJATCBi8MyZMzGLaE9PT8wqajmJah0HzlYCEpCABCRQdQIUn//ss89iiQmsg8uWLSs1EgVhqZfXyUng7QQQfJSTuHnzZrQKkjzmzp07gULzNglIQAISkIAEJFAVAqtWrYpJZEggc+LEifgc19GyNwVh2VfY+UlgHgK4iFJb8MGDB7HQ/LfffhtLSvA3r9skIAEJSEACEpBAVQhgBcQ19PDhw+Ho0aOxCH1V5q4grMpKO08JzCCQxAv29fXFUhIUmieDKC6jP//884xP+lQCEpCABCQgAQmUn0BLS0ssOv/b3/42HDp0qPwTnjFDBeEMGD6VQNkJECeI9W98fDxaBS9fvhzLSVy/fj2WmDCLaNmPAOcnAQlIQAISkMBMAsuXL48ZRfft2xezih44cCBs2rRp5kdK/1xBWPoldoIS+CcBrH+PHj0KFy9eDF9++aVWwX+i8ZkEJCABCUhAAhUkQPF5rIMfffRR+P3vfx82btwYKDtRpaYgrNJqO9dKExgbG4tF5hGDWASHh4fD48ePdRGt9FHh5CUgAQlIQALVJJDUGty9e/erjKKUm8BiWLWmIKzaijvfShHABZQagsQG3rhxI1BKgtqCuIyaOKZSh4KTlYAEJCABCUjg/wggBhF+XV1dsbTEb37zm1D24vMLLb6CcCE6vieBAhNIsogODAyEH3/8McYKUk4Cl1EK0NskIAEJSEACEpBAFQkgCNetWxd+/etfh08++SSWl6DkRFWbgrCqK++8S02AuoKTk5OxtuC1a9cCyWPu3bsXS0yUeuJOTgISkIAEJCABCSxAADG4bdu2V+Uldu7cGVavXl25uMGZiBSEM2n4XAIFJ0AWURLHEC9ISYkvvvgiuooSK2gG0YIvrsOXgAQkIAEJSGBJBKg1iCWQTKJ/+MMfwt69e0Nra+uS+izDlxWEZVhF5yCB/yWAGJyamoquoVgEr1y5Eq2CxBAqBj1EJCABCUhAAhKoOgHE3/Hjx8PHH38cxSBJZGwhKAg9CiRQcALEA7548SKMjIyE/v7+0N3dHbOIEjuoECz44jp8CUhAAhKQgARSIdDe3h72798fxeDhw4dDW1tbKv2WoRMFYRlW0TlUmsDz58/DxMRE+Oqrr8K5c+e0Clb6aHDyEpCABCQgAQnMRYDC87/61a/CBx98oBicBUhBOAuIf0qgKAQSq2BSToJHEsc8ffo0uo8WZR6OUwISkIAEJCABCWRFADdREsdQeP7o0aOx8HwVaw0uxFdBuBAd35NAzgjgAspGkhisgsQKXrhwIZw+fTqWkiCO0CYBCUhAAhKQgASqToBsomvXro1ikNISWAb37NlTdSxzzl9BOCcWX5RAPgkg+EgSc+nSpXDmzJlYVgKrIHGExgvmc80clQQkIAEJSEACjSdANtGDBw9Gy+Dnn39uNtEFlkBBuAAc35JAXggg9qanp8Po6GgUgWQQvXr1arQSIhBtEpCABCQgAQlIQAL/IEDCmO3bt0cxeOzYsdDZ2RkoOWGbm4CCcG4uviqB3BBIagsODw+H8+fPx9qCuIsSQ2iTgAQkIAEJSEACEvgHAdxEk8LzxAx+9tlnURjKZ2ECCsKF+fiuBJpGAKsgrqBDQ0Oht7c31hW8detWrDX4/9t7D+4orjx//85iwCSRRZBAEkESOSfbeOKZs2f3Jeyb+b+u2T3r2WGcjTFgco4CRM7J8Of5zq+wwEjqbnWoqn7uOXU6VVfd+9zqrvrUN/G+TQISkIAEJCABCUjgVwLUFex9U2yemEFqDVJqwjY+AQXh+IxcQwJNJ4D1j8QxuIgiBrEMUmMQy6BNAhKQgAQkIAEJSOBdAjNnzkzLli1LW7ZsSbiJmkDmXT5jvVIQjkXHzyTQIgIPHjwIAfj3v/89nT59Ot28eTOshS3qjruVgAQkIAEJSEACuSZAaYnNmzenzz77LM2fPz/Xfc1b5xSEeZsR+9O2BLLEMZcvX04nT55Mp06dStQWxCpI8XmbBCQgAQlIQAISkMC7BEgg09XVFW6iWAbnzZuXyDBqq5yAgrByVq4pgYYQQAj+8ssv6eHDh+nixYvpxx9/TIcOHYpsonzGYpOABCQgAQlIQAIS+JUAWUM//vjjt3UGiRlcvnx5JJX5dS2fVUJAQVgJJdeRQAMJYP27d+9e+u6776K+ILGCvFYMNhC6m5aABCQgAQlIoNAEEINr166NmMGdO3emjo4OxWCNM6ogrBGcX5PARAm8ePEiMobiIopr6OHDh9OFCxfiPUpN2CQgAQlIQAISkIAE3iVAWQnqCpI0Bqvg4OBgWrRo0bsr+aoqAgrCqnC5sgTqR4CC8pSR+Oqrr9KXX34ZSWNwHbVJQAISkIAEJCABCfyWQFZncOXKlWnv3r1p3bp1lpb4Laaq31EQVo3ML0igdgIIPiyDJ06ciLqCJI7BQkhdQa2CtXP1mxKQgAQkIAEJlJsAMYNYBjds2JA2bdqUVq9enag7aJs4AQXhxBm6BQmMS4B4QGIF7969m65du5b2798fLqJXr15NWAptEpCABCQgAQlIQAK/JYBVcNKkSSEGBwYG0u7du1NfX1+8/u3avlMLAQVhLdT8jgSqJIBlcHh4OETgvn370o0bNyJxDNZCmwQkIAEJSEACEpDAhwkgBqdNmxZCkJhBxCCvbfUjoCCsH0u3JIF3CGAVxA0U8Uc5iay2IIljsAriJmqTgAQkIAEJSEACEvgtAVxEqSdIKQmyiVJ0nue4ifKZrX4EFIT1Y+mWJPCWAEIQ6x+1BRGC33//fTp69Gi6deuWdQXfUvKJBCQgAQlIQAIS+C0BrIJTp04Nt9CNGzemP//5z1FwXsvgb1nV4x0FYT0oug0JvEfg0aNHkSyG2oKnT5+O5w8ePFAMvsfJlxKQgAQkIAEJSOB9AtQUXLZsWfr0009Tf39/mj9/fpo8efL7q/m6TgQUhHUC6WYkAIHHjx+nO3fuJIrLk0n04MGD4TKKQLRJQAISkIAEJCABCYxOgGLzs2fPTqtWrQo3UayDZBbFddTWOAIKwsaxdcttRoCYwdu3b6dDhw5FbUEEIW6jvG+TgAQkIAEJSEACEhibwKxZs6LQPDUGiRn86KOPjBccG1ldPlUQ1gWjG2lnAs+fP0/379+PGEHiBXERHRoaCjFobcF2PjIcuwQkIAEJSEAC4xGgrATCb8WKFWnNmjVpy5Ytqbu7O1xE+czWeAIKwsYzdg8lJUApCbKFUk6CLKJff/11iEGyimoVLOmkOywJSEACEpCABOpGgGyhM2fOTAsWLIhi8xScHxwcNF6wboQr25CCsDJOriWB3xAgXhAh+MMPP6Qff/wx3EV5TzH4G1S+IQEJSEACEpCABN4hgBgkUczq1avTJ598Eo+LFi0Ka+E7K/qi4QQUhA1H7A7KRAAXUCyDCMFz585FSQlcRK9cuRJ1BXURLdNsOxYJSEACEpCABBpBgPIRZA5FDK5bty4SyMybN8+C842AXcE2FYQVQHIVCWD1Y8FFlPIRBw4cCKvgqVOn0rNnzwQkAQlIQAISkIAEJDAOAayC1BjERXRgYCD95S9/ifISJJOxtY6AgrB17N1zgQhgFaScBJlD9+/fHxbC69evR+KYAg3DrkpAAhKQgAQkIIGWEUD4UV9w27Ztaf369Wnx4sVaBVs2G7/uWEH4KwufSeA3BLAK3rt3LxLHnD17Nh05ciT99NNPUW+Q7KI2CUhAAhKQgAQkIIHRCZAplDqC1BPs6emJpDEbNmyI51gMzSQ6OrtmfaIgbBZp91M4AohBYgKJF8QqSPIYMogqBAs3lXZYAhKQgAQkIIEWEcBFlEyiO3fujJIS/f39IRB535YPAgrCfMyDvcgRgSxWEJfQY8eOReIYrIO3bt0KMcjnNglIQAISkIAEJCCB0QmQQRQhmCWO4XHp0qXp448/1io4OraWfKIgbAl2d5pXAlj/njx5khCDx48fT19++WW6evVquI3mtc/2SwISkIAEJCABCeSJAFlE586dG/GCO3bsSNu3bw9xiOuoLX8EFIT5mxN71CICWP6wAp48eTLcQ8+cORO1BXURbdGEuFsJSEACEpCABApHgJjA5cuXR9IYhOCSJUtSR0dHZBct3GDapMMKwjaZaIc5OoGXL1+mR48epUuXLiXKSJBJFDF48+bNqDk4+jf9RAISkIAEJCABCUggSxxDOQmyiA4ODiZiBfv6+iKLqIlj8n2MKAjzPT/2roEEsAiy4CKKW+g//vGPdPTo0Ugi08DdumkJSEACEpCABCRQGgKIPeIFZ8+endasWZP+8Ic/hCjEZdRWDAIKwmLMk71sAAGE4PDwcDp48GCUkyCbKLUGbRKQgAQkIAEJSEAClRHIykls3rw5rVy5MhLHTJ8+vbIvu1YuCCgIczENdqJZBLAIUmT+9u3bYRXENZS6griKPn36NMpMNKsv7kcCEpCABCQgAQkUkcBHH32UEH3z588PETgwMJA2btwYtQb5zFYsAs5YsebL3k6QAHUFsQxiFTxw4EBYBokffPHiRbiPTnDzfl0CEpCABCQgAQmUngClI0gcs3fv3ogVpJwEGUQpNG8rHgEFYfHmzB7XQACrIMLv/PnzUU6CxDG4iN67d0+rYA08/YoEJCABCUhAAu1HYM6cOWnRokUhAqkruGLFirASUmbCVlwCCsLizp09r5DAs2fP0v3799PQ0FCUk/jmm2/S3bt3w0W0wk24mgQkIAEJSEACEmhLApMmTYqkMbiIYhUkcQzlJHp6euJ9M4gW/7BQEBZ/Dh3BGASIGaScxLFjx9L+/fvTlStXInEMpSZsEpCABCQgAQlIQAJjE5gxY0bUEty2bVvCKtjV1RV1Bcksqhgcm11RPlUQFmWm7GfFBBCBxARSZP7y5ctRaJ5i8ySOwW2Uz20SkIAEJCABCUhAAh8mgFUQIdjZ2RlWQVxDsQziLkqReVu5CCgIyzWfjuYNAeIFHz58GELwb3/7W4hCy0l4aEhAAhKQgAQkIIHxCZAYhgQxixcvTjt37kyUk1i1alVYA7UIjs+viGsoCIs4a/Z5VAKUk8AqSBZRrII8xypok4AEJCABCUhAAhIYnQBij2LyuIQODg5Gwhiyh1Jags8Ug6OzK/onCsKiz6D9jyyhJI7BCnju3LlEBtEff/wxXbt2LT1//lxCEpCABCQgAQlIQAKjECAWkIQxZBAlaQxxguvXrw9hSHkJheAo4Er0toKwRJPZrkPBRfTGjRvp66+/jrqCZ8+ejQyiJo5p1yPCcUtAAhKQgAQkUCmBWbNmRcbQ3bt3R5H5JUuWpKlTp5pBtFKAJVhPQViCSWzXIVBgnnISuIayYBnEKvjgwYN2ReK4JSABCUhAAhKQwJgEsPhh+cMVtLu7O6yClJBg4T2Sydjai4CCsL3muxSjffXqVbiCDg8PpwsXLqR//OMfUVaCRDJ8ZpOABCQggdYTwMJAYgoWPDlw7ceNn+c2CUig+QQQgriHIgYXLFgQiWK2bt0asYJkD9U1tPlzkpc9KgjzMhP2oyIClIzAMnj8+PH0888/R/IYyks8fvzYchIVEXQlCUhAAo0lwEUlC2nqiUXikf9pSv+cOXMmkfxLUdjYOXDrEnifAJlDuUmTxQiSNAbrIElkiB9UDL5PrL1eKwjba74LO1ouHrizjEsoVkEKzeMmSrygdQULO612XAISKBEBLii54Jw3b15caFKzDEHIRefdu3fDFW3hwoWR/fn69evp3r173swr0fw7lPwRQASy8JvEIogVELfQvr6+eCSJDJ/bJPC7NxfTVun2OMg9gadPn8Zd5X379qV//vOfCXdRLIUevrmfOjsoAQm0CQEKWXPhuWXLlvTXv/71bQFrhCL/1dzYI+4bK+F3330XN/YoDaSrf5scIA6z6QQ++uijuElDHUF+l5s2bQqLIG6jWgSbPh253qGCMNfTY+e4UOCCgQsIXETPnz+fhoaGQgzqcuTxIQEJSKD1BLiw7OzsDIsDqepXrlwZz6dNmxbxSlkPEYUvXrwIUUhm6KtXr8b/O+WCeM6NPtbxRl9GzEcJVE8AEUhSmGXLlsXvEBdRCszzGyVhDDG9WgWr51r2bygIyz7DBRwfFwMIQQrKE2ty5MiRt/GCxAp6N7mAk2qXJSCB0hHgopLkFLid9ff3p3Xr1oUFArdQrIXjNRKBIQwJATh9+nSEA/Ae//3Zf73icDyKfi6BFAIPoUcsIDGBiL+BgYFw2V61alWIwEp+k7JsXwIKwvad+9yOHMGHiygXCdQWxDpIvEl2gZDbjtsxCUhAAm1EADGIFWLPnj2JBBVYIrAKYqGoxB2N/3oshvzf40p68+bNdPTo0UgaRgIa3vcGYBsdUA61ZgJZ1lBEIDdmiN2ltiC/R+J6+T1W8pusuQN+sfAEFISFn8JyDYCLAu4Yc7eYTKLUFrxz506IwXKN1NFIQAISKCYBrBBYBbnoxDKIGCRZRUdHR80DQhgSF47r6JUrV9KlS5ciPIBEYlnMuGECNeP1iyUjkFnnidnlt8dCMfmlS5fGgoWw0hszJUPjcGokoCCsEZxfqy8BTvRcEBAjiIsoyWO4MOAOsU0CEpCABFpPgItQklEQj4Qb2t69e0MMYp2oZ0xSJg7xEuF8wM3BTBTyGecLLYetPx7sQXMJYOHLfoP85ogHJF53w4YN8XtEFOIWqiWwufNSlr0pCMsykwUeByd3rIK4CpE4BlchalYhBr0jXOCJtesSkEBpCHAhigsapSRwSWMhjT3v8Vk9L0KJG+S//8GDB1GagvIUWAqxGuI9ws1CvEkUhaU5vBxIBQQQgVgEqeuJEKScC7/B2bNnRxIZPq/n77CCLrlKiQgoCEs0mUUbCnUFMxchTvKHDx9OZJsjXtAmAQlIQAKtJ4DFgQtNrILECGKNwFWU5824+MySjBE6gBCk9izCkJuIJB1DGJKE5uXLl62HZQ8kUCcC/La40UIMIK7YiD7EIL/D3t7eWHAL5XObBOpBQEFYD4puoyYCFComVuR//ud/wi2Ikzsnde/61oTTL0lAAhKoOwHiBbnwxD109+7d4aaGQORitZktE4ZYDrEYXrx4Mc4beJYgEMlOakbSZs6I+2okAX5fZA3t6uqKbKFY5BGCI8tGIBqbcVOmkeN02/khoCDMz1y0RdI3UJEAAEAASURBVE84YZMtlBP4yZMnI5MocYO4iD579swTelscBQ5SAhLIOwEsg1yM4ppGbUHc1EhaQcbCVqevx7sEd1LOG2QmZcFiiHcJVsQs5MCbi3k/yuzfSAIIQFywsQKSHIbfGyVccAtFCGIl1C10JDGf15OAgrCeNN3WqAQQgtmdXWJBDh06FC6iJA3gpO2d3VHR+YEEJCCBphDI3NQoak0tM6wSuIhu2bIlXNPyaI3g/EHoAecVbi4SfsANRzxOuPlILDoCkvOP55mmHEbupAIC2W8NEYjIY0HwIQCzGMGenp4QiGQLtUmg0QQUhI0m7PaDACdkXHq++eabdODAgThh4zLKidyTtAeJBCQggdYTwPKHGMQiiHsoNQZxF+W9ZruIVkqD8weikOyjeJlwTiHe8PLlyxGTTswhVkMsiohCmwTyQCCLzcUSiCsoIpDnCELiAhGImTU+jzdi8sDQPtSXgLcd6svTrb1HgBMwd2qJFeTOLSnESRxDIgCTALwHy5cSkIAEWkggS2KByxrZRDMXtRZ2adxdc7HMxXV2gU0CDmoksnBxTfIbSlbgRopQ5HxEDCI3KD0HjYvXFepEIPttZclhSBCDGyg3XFj4zWGV5+aLArBO0N1MVQQUhFXhcuVKCXDXFjHI3VoE4P79+9M///nPeO1JuFKKricBCUigeQSyRBYzZ86MjIaIrKI1LqaxrhB/xcK5CMshMYaciyhrlFkNcSnFujhyKdp47W8+CXAc8nti4XeEayg3KHrfWAP7+/vflo3AGqgAzOcctluvdBlttxlvwngz9x0sgtQVJHkM7jvcpTWOowkT4C4kIAEJ1ECAi1fE1Pbt29Nf/vKXRAwTVouiN847iEKsgix4qGAtJAnN0NBQxB9yfuI9zl+GMRR9xlvbf2L+sPRllj+sfxSNxyqIBZvEMdx0IYNvEW+6tJaue28UAS2EjSLbptvFIog7Di6iiEGSx3DC5SRsk4AEJCCB/BJADGE14wbewYMH4+IV18uiWzC46ObiOyuhgUAk2QwikPhCEtIgDslWyrmKuoYsnM9YD4GoSMzvcdvKnnFsIQCz44tHBB83UhCCmaUacYgIVAC2crbc91gEtBCORcfPqiaAECRz6N///ve4qOBOrFbBqjH6BQlIQAItI4B1A/e2//qv/0rbtm2Li9iii8L3YSLwODchgjMLYlYSiWylLAhjBGO23vvb8LUEsuygxKqyYFXv7u6OUhG4iSIAWTL3UYlJIK8EtBDmdWYK1C9OqATscwI9fvx4xGhQNJg7rcYLFmgi7aoEJCCBNwSwipF8hfINWT20sqW+R+COHBMZHbHuTJ48OZJ9UH+RTNh4vOBKysJrHnkP66Hnt/b5uXC8EO+H9Q/XTyyA2YIVnWQx2YJbKOsiAm0SKAoBBWFRZiqH/eSuKam+sQISqE/imKNHj4aLqO41OZwwuyQBCUigAgL8t2Mt48YeghB3t5HiqYJNFG4VLt6zxB9YR2nc7OQchzspbqVYC7OYQ4QhopDPWRCHLFoTCzf173QY4Ze5gXJzgOOeR46NLHNtV1dX/C54JFMoIrFsFvR3oPiiLQgoCNtimhszSE6GnCS//vrrdOLEiXCvIe5CMdgY3m5VAhKQQLMI8D+OyySicNOmTVETrVn7zst+uMhHDCCIEQN9fX1R5B4LKjdCiTnkHEgsYrZQ75Bzo614BDIxiOVvZEkIbhCwIPywImNNzhYEo2KweHNtj39LQEH4Wya+Mw4BTnaZiyiWQZLHmDhmHGh+LAEJSKBABLCOIXIQPFgLuQAuu5Xw/enhQp+FODGWrMEGUYj1lHgxXEmzBaE4MjFNlpyG8ybfwYLoTdOMZPMfM9HH8Yxb58hkMDwn8Quun9wAyBYEIu9xDJgUpvlz5h6bQ0BB2BzOpdgLJzFOhJz4EIHffvttZBHFTcYTXCmm2EFIQAISCAL8pxMrhyhE5JBopt0E4WiHAu6lmZCgnMDIhvCDF+6lmYspLqdw5Ebq+6IQziPPnyOfj9yuz6sjkFntMlHPt7PnCEFEHnPHkpWFyF5jFVb4VcfbtYtPQEFY/DlsygiIkeBERhkJsohSY5A7x9zttElAAhKQQDkJ8L9P9mgEISLINjYBYs2wJmWupgMDA3HuhCNiEeshghGxzSMLbqa8z0K9RJPVjM14rE8R6wg+jlesfbh5jlxI+MLC51j8WDezAPOceTMZzFiE/aysBBSEZZ3ZOo0LwcdJjLubXBR8//33ES9448YNT1p1YuxmJCABCeSVAEKGm3+4R9rGJ4BliWWkiynfyiyBuJAiArOspXjcjBSGuOfCPEtWMzJhTZa4JntsF/fTzLKHhZoF0Tbac1xBEXuIQIQf4jx7zFxB+RzhbpOABH4loCD8lYXPPkCAkxGJBcgg+tVXX8VdTU5YWgY/AMu3JCABCZSMwPPnzyN5Cv/7ttoJZKIGMYIlasGCBRGCQRgG51MeEY3cgEU0ZjGJCMdMMGJBxJrIa56zbjuIQix2iEAsfpmFLxN6mdjjkZg/3s/iXfkeCwI9e5491j6TflMC5SSgICznvE5oVJyUOMkgBM+ePRu1BXkkDoI7k5y4bBKQgAQkUH4C3BTMSiyUf7SNH2EmSEaLx8SyhQgnyyWCjwWLIQvupKMtfIe5ev+R91gyqyKPnN+zR55nSyZK60Ehs5Rm4+V1ZtV738qXvY+Qw3L3/sL7CEIesbxmj5mrZ/aYuX+yLwS4TQISqJyAgrByVm2xJicJTjzcgTx8+HBYBskkyl1JmwQkIAEJtBcBxATnA4SIrfEEMnFUSbwm5+vMoogFNxOQPI58PVJMIhizJROQbIfnCMPshm/m4lrNiDMrKN9BwCHsEITZmBBymZjLno98xHqaWVAZf/Yawcc2FHnVzIbrSqA6AgrC6niVem1OBLipkDCGDKLUn8IqyMnFJgEJSEAC7UcAkYCgQDDY8kUASxhWMYQXLpOcwzNRN9Lql72HyGMdlvefZwIwe0QkslTTEG30KbMKZgIxe8ze5zGz4r3/HtvIPmedbFEMVjMTriuB6gkoCKtnVrpvcALgDjCJYs6cORMuolgHvStcuql2QBKQgASqIoB4wDqIqLDliwAiKbO+1bNnXBMw39UIQvqieKvnLLgtCTSXgIKwubxzt7fsbiD1ksggynLp0qW3biO567AdkoAEJCCBphHgHJG5EzZtp+6opQQaJTRbOih3LgEJjElAQTgmnnJ/iBsQhXKxBp44cSKsg7zmAsAmAQlIQAISgEDm1icNCUhAAhIoJwEFYTnndcxRcbeXtNbUliJ7KPGCFy5cSLdv3x7ze34oAQlIQALtRSCzFvFok4AEJCCBchJQEJZzXsccFbGBZA797rvv0pEjR6K2oBnkxkTmhxKQgATakgDWQTJGEh9mk4AEJCCBchJQEJZzXn8zKgLEcRE9f/58ZBHFRfTcuXORSCbLOPabL/mGBCQggYIRwJI1so5ZlrUwi5fm/y5Lu8+j/39jTzD8SP8PU5sEJCABCZSTgIKwnPP6dlRcBCEGHz58mIaHh8M9lJhBhKFZ495i8okEJFAwAgg/FixXiJYsw2EmYGbOnJlYEDK8l/0X8r9HjTb+E6mvigs92RQRhjzyOYux1P86IGBHsXQFYcF+IHZXAhKQQBUEFIRVwCriqriCUk4CEXjgwIFENtE7d+6YRbSIk2mfJSCBtwQQgBS17urqSkuWLEmLFi1K8+fPT3Pnzk0Uss6EIC6PCMdM4PGI8GNBDN67dy/ip2/evBlx1UNDQ/Efaf3Vf6HGXXTOnDlR7+4tfJ9IQAISkECpCCgISzWd/xoMFzwsXOAgACk0T6zgsWPHrCdVwvl2SBJoFwKIk+nTp6d58+aF+OMRMbh48eK0YMGCEIOzZ8+OmDeE4Fgt+5/ESpiJQm6ekWyLR/4/uXlGzDUWRdZvx4awXrhwYXBvx/E7ZglIQALtQEBBWMJZ5sKFu9/ECVJX8NChQ3HBY6xMCSfbIUmgjQggBpcuXZq2b9+e1qxZk1asWPHWXTRzIeWxkpat39HRES6RWBr578RdFDFIBuaDBw+m48ePJ6yF7SoIsbZ2dnaG+20lXF1HAhKQgASKR0BBWLw5G7XHCD7iYi5evJh+/vnnqCvIc+6Ac5Fjk4AEJFA0AsSwYQlcuXJlCMDly5eHeyjvIVYyYVfruN7/Pq6obJv94n7a398fZXlOnjwZ1kOsie3SYEFCGaywxBHaJCABCUignAQUhCWZVzKI4tp0+fLliBf8+uuv0927d8PVqSRDdBgSkEAbEUCQ4a6IKyiWwK1bt6bVq1eHhbBSK2AtuNj2tGnTYiEusaenJ/X29oaFDK8LarZy463spXrggBhEFDMHMLFJQAISkEA5CSgISzCvuDKRCIE4wf3794eFkLvYuI3aJCABCRSRAO6hxAZ+/vnnad26dW9FSSPF4Ic40Q+skpmVEjfSn376KW6+ldmNlBhMXEWxDiLMx4vJ/BA735OABCQggWIQUBAWY54+2EtqaGEF5I41d65xaaKcBJZC3EdtEpCABIpGgMQxZAtdtWpVWr9+fcQKIkrIKNpsMQi7rJxF5p5KP1iIPaSWK94ZZfy/RQAuW7YsLKTMiU0CEpCABMpLQEFYwLnl4oMFK+CZM2fSF198EQkQyIxnk4AEJFBUAogvagfiGrp79+70ySefhGWqFULwQwwRqlgKKcPAQnw2/7uIwjI1eCMCsYziMov7rk0CEpCABMpLwH/5As4tFsArV65EXUEy4FFaggsTmwQkIIEiE8ASODAwEEKQuD2sVHkRgxlX+kMZBqyX9I9MztR5LVMxe0Q57rpkdCWGUHfRbPZ9lIAEJFBOAgrCgswrFkFcREmHnrmIchFy6dKlKK5c5liWgkyR3ZSABGokgDWKBCZk9Ny2bVs8Uk8wry0rf4HrKNZBksxwY+7Ro0d57XJV/cISStwmSXVMJlMVOleWgAQkUEgCCsKCTBt3n3ER/fbbbyOhATGDL168CNdRxWBBJtFuSkACHySAGMQiiBjcsWNHuCt+cMUcvYkYxIpG9lME7d/+9rdSFLDHAoplcM+ePZHIJ0fI7YoEJCABCTSIgIKwQWDrtVlSm+MiSsIY3ENPnz4dGUXLFrNSL15uRwISKA4BxAfJWohV+/3vfx/lJRBaRWj0nZhH3EcHBwfDQsh71H4tamMuSCSTlffQOljUmbTfEpCABKojoCCsjlfT1sbq9/jx43Tr1q1wEf3uu+8S6c5xTbKcRNOmwR1JQAINJEBsGoIKAYJ1sIjFz+kzImrTpk1Rm3B4eDjc+/HqKFIjcQyJcnAVZT7y7LJbJK72VQISkEARCCgIczhLiEFEH26hxAkeOnQocZGBGCzaRUYO8dolCUggJwSob7d58+a0ZcuWRFxeUZOXYNVESOHRQcKva9euhYt/TjBX1A2ELZZaXGD7+voq+o4rSUACEpBAOQgoCHM0jySO4YLi+vXr6fybeoJHjx4NF1FckIgXNFYwR5NlVyQggQkRIJMlSUuoN4iFDQsVLpdFbLiOUpdwxYoVkSH1hx9+iJJARahRSN8R5llCH+aCmE6bBCQgAQm0DwEFYU7mOssieufOnXAN/d///d+3VsGcdNFuSEACEqgbAcoZIEIQIDwvekPMkoyFDJ1kG+W/nBqFeb6ZR5+xbsIfK+2nn35aaEtt0Y8h+y8BCUigVQQUhK0i/95+cTGiyDwuomfPng0xaOKY9yD5UgISKA0BxBMZRSn0XpaGtY3ELIyLx3/+85/hPko8eN4aYhBLIBZahCD1H0kiU1S33bzxtT8SkIAEikRAQdjC2SIekDvJJI4hXhAX0Z9//jnuLBsr2MKJcdcSkEDDCCCasjp+K1euLJV7ImKKpaenJ1xg+X8nOzRu/0+ePMlNQjBcRLNSHyTDIaEPLq+47dokIAEJSKD9CPjv36I5Jx6QQvNcKOzbty/KSlDYmPcUgy2aFHcrAQk0nAAuil1dXWnJkiWRybKocYNjgWKM3d3d6T//8z+jlh//8ZcuXUoPHjwY62tN+4wEMojWP//5z2nNmjXhMqplsGn43ZEEJCCB3BFQELZgSsgWevPmzbhzjGXw1KlTYSXkDrJNAhKQQJkJ4EpJFsvOzs7SuicicrHCZWUcGDOWQsICWpUkDMGHVRChSlkJaifiLkp5Cay2NglIQAISaF8CCsImzT0WQSx/iD7SkiMCv/rqq4gXJFbQDKJNmgh3IwEJtJQAcWq9vb0hCFvakQbvHFGICyZjxRpKshksc5QUun//ftSZxSOEhGKNbPRh8uTJIQYXL14cZT42bNgQMYP0sYwW2kbydNsSkIAEykhAQdikWeWkT9Y5agoeOXIk7hbfvXs3XEQVg02aBHcjAQm0lABWKgQhLqNlyCxaKUwEGfGSjBnLHPHiWWwhCWcaJQoRe8QGUl8wKziPKMQqqBisdPZcTwISkED5CSgIGzzHpBzHAkj8CO5CJI05/6bGIFlFFYINhu/mJSCBXBFADCJQWHCjbJeGEMY6yPixFJJUh0eE2vDwcNwsxGpIEpqJeIxkNQXZF6IPAYoApLQHNRKxVLJv4wXb5chznBKQgAQqI6AgrIxTTWsh+Di5U4uKpALff/99nPgRiTYJSEAC7UaAYvSUmUAMtmPcGu6bMFi/fn1YChGA586dC4shYQSXL1+OuoW1JhbDEkncIjGalJEgYQzlPRCIuoa226/N8UpAAhKonICCsHJWVa1JbAiWQJLG4CKKhZA7wLWe6KvauStLQAISyCEBhAmC0PIGKQQxFkOshFhMcenkHMFCOMFIiyE3Fok9xLWUG42ZJZDENVj8SBaDRZDtjHzkOftQDObwx2CXJCABCeSIgIKwjpPBiRrBd+/evXT9+vUoMo+LKPEinMx1Ea0jbDclAQkUjkAmXNrROvj+ZCHSEHQIZBYa5wnEH/HmLJSpyNxI8Szh/IIoxBLIdxF7MM2ENoJQl9D3SftaAhKQgATGI6AgHI9QFZ9zsqakBIljvvnmm3ThwoV0+/ZtxWAVDF1VAhIoL4FMwCgIPzzHcEHQUcdw4cKFIf4yqyA3FLObillCGB6JB2ThuyzGB36Yre9KQAISkMDoBBSEo7Op6pNbt25FOQlcRE+ePBkJZHD5wXXUJgEJSEAC6a1VS9Hy4aMhE3rwwQpok4AEJCABCTSDgIJwApS5W4sbz7NnzyIxAJZBagvi6mPimAmA9asSkEApCSBysH4hfGwSkIAEJCABCeSDgIKwxnnIxCBuoT/99FMkj7l48WLEDxIHYpOABCQggXcJZK6NCsJ3ufhKAhKQgAQk0EoCCsIa6GMRxB2UzKEUF0YQDg0NhRisYXN+RQISkIAEJCABCUhAAhKQQEsIKAhrwE7mN2pH/fd//3eidhQpwrNg/xo251ckIAEJtAUB/iezJCltMWAHKQEJSEACEigAAQVhhZPERQzlJM6ePRvuoSSOwUJIVlE+s0lAAhKQwNgEiK0m0ZY30Mbm5KcSkIAEJCCBZhJQEI5Dm1ISxASSKIZC8wcOHEjHjh2LkhJe1IwDz48lIAEJjCCAGKTOnjfRRkDxqQQkIAEJSKDFBBSE40wA8YK4hO7bty/qC165ciUKBSsGxwHnxxKQgATeI4AY1KviPSi+lIAEJCABCbSYgIJwlAngTvbw8HBYBYkTJHnM5cuXvZgZhZdvS0ACEhiPwKNHj8L1Hs8LmwQkIAEJSEAC+SCgIHxvHrD8IQaxCuIa+sMPP6Tvv/8+cQGjm9N7sHwpAQlIoAoCWAdxv7c0TxXQXFUCEpCABCTQYAIKwhGAEX24iB49ejQdPnw4kTjm2rVrIQZ1ER0ByqcSkIAEaiBAYq5bt27F/yw32KhLaJOABCQgAQlIoLUEFIRv+CP2cGXiQgW30IMHD4Z18Pr165EAobVT5N4lIAEJlIMAMYSIQpYFCxak6dOnl2NgjkICEpCABCRQYAIKwjeTx51qxB9C8Isvvghh+PjxY1OjF/jAtusSkED+COCF8eTJk/i/VRDmb37skQQkIAEJtCeBthWEWAURgriEUluQeMHTp09HIhncRo0XbM8fhKOWgAQaSwBBeO7cubRw4cK0ZMmSxu7MrUtAAhKQgAQkMC6BthSEJDTAdSlLHPPjjz9GvODNmze1Co57yLiCBCQggdoJ8N+LIOzp6Yn4bOIIf/e739W+Qb8pAQlIQAISkMCECLSlIHzw4EEUlv/qq6/SmTNnwn2Ju9YmjpnQseSXJSABCYxLAA+MixcvpqGhoYjdnjZtWpo8efK433MFCUhAAhKQgAQaQ6BtBCFij5TnxAriGkoGUdxEb9++HTEtjcHrViUgAQlIYCQB4ghJ4nX16tVEjdcVK1akuXPnjlzF5xKQgAQkIAEJNJFA6QUhQpDlxYsXES+4f//+qC2IKMw+ayJvdyUBCUigrQnwv4soxEL4008/hRicM2eObqNtfVQ4eAlIQAISaCWB0gtCisyT4pwLDyyCuIhSXkIx2MrDzn1LQALtToCY7SNHjqRVq1alefPmpdmzZysK2/2gcPwSkIAEJNASAqUVhCSOIVaQLKLnz59PWAbJJpqJwZbQdqcSkIAEJBAEcBvFSsiybNmyNGvWrDRp0iTpSEACEpCABCTQZAKlFYTUEUQAfvfdd+n777+PmBWSGWAZtElAAhKQQGsJ8F/MjbsbN25EuR9EoYKwtXPi3iUgAQlIoD0JlEoQUjuQ2BSEIMkKcBG9cOFClJfgfcVgex7kjloCEsgPAUpMIPy6urrCXXTTpk2pu7s7UX7CJgEJSEACEpBA8wmUQhAi9EgagwsStQWpK3jw4MEQhtS8sklAAhKQQOsJfPTRR4kyEySRWb9+fdq5c2fq6+uL163vnT2QgAQkIAEJtCeBUghCrH/Dw8Pp6NGj6dtvv42YFMpJkFDGJgEJSEAC+SBA8hgE4K5du+Kxs7MzBGI+emcvJCABCUhAAu1JoLCCEKsgC0liqGdFGYnjx4+HmyhWQSyGNglIQAJlI4DLJUv2H5j38eEKSsKYRYsWpdWrV6f+/v60du3asApOnTo17923fxKQgAQkIIHSEyikIORCiHhBEhKcO3curIKUlSCNOZ/ZJCABCRSZQCb6GAPPRz4isHC95P+P/8GRLfv/GykWs/dGrtes5/R18uTJaenSpWnPnj1p8+bNqaen5+2YmtUP9yMBCUhAAhKQwOgECikIHz58mK5cuRJxglgGL168GCUmWnnhMzpiP5GABCRQGQHE3/Tp06Mm34IFC6JoO/X5sLDNmDEjTZkyJQQWghAxyH8ej2RQfvLkSSK78v379yOWGu8JXOepw4p4bHZjHLiIIgIHBgbCRZTXmcBtdn/cnwQkIAEJSEACHyZQKEGIKyi1BRGAuIdSToKU5QhEmwQkIIGiEUAcYUVD7M2cOTMWRNPChQsT8XWIQl53dHTEZx9//HFYB7PyDJkg5L8RMch/IYm17ty5k65fvx6x1cRXIxL5jAXx+L5lsZ7csAgiYLEKEi9I4pje3t4Yg2KwnqTdlgQkIAEJSKA+BH735oKiED6WdBOrIIljqC1IWQmyin7Ibao+aNyKBCQggcYSQNghoIirW7NmTTwiBLEKYgXkcxZEIwuC6kOiaqS1kCRbvOa/EfGHGKQUDzfRTpw4ETfRGlWTlb6RQXTdunVp27ZtiZISiF1iBem/TQISkIAEJCCB/BHIvYWQ5DBYBc+cOZNOnjwZy6VLl8INqpF3ufM3VfZIAhIoAwFEE2JvyZIlUYtv+fLl8bh48eKwCmYCqpqxZmIrE5jZd/mPxPKIZXH+/PlpxYoV6fLly+FlMTQ0FC6l9fgfZTy4s65cufJt4hhiBefOnftWyGZ98lECEpCABCQggXwRyK2FkIsUxCDuTwjAffv2xd1tMoraJCABCRSNAEIQ4UYdPiyAGzZsSBs3boyFeDtEVSMbXhb8p+JpcejQoXT48OG40YanBSV6ahGGjClzEUVw7t27N2IGEbsIRJsEJCABCUhAAvknkFtBSKwLFy4HDhyIixfiYXB9wtXJJgEJSKBoBBBOxALiTrl169bU3d0dsYLE22HZQ1w1uiH6iDfM/l/xvMAFn/9aPDGqbYi+rq6uGNP27dsTVk6sgrqIVkvS9SUgAQlIQAKtI9DYW9JVjos72MS/kCgmSxxDzCClJbizXcsd7Cq74OoSkIAE6k6AuDpiA1etWhU1+KjDhxBsdh0+LJRYI7MFgYoYPXbsWNRyRRSOd9Mts3RiESRxzODgYCyMCdHL9mwSkIAEJCABCRSHQK4EIYKPi5EjR45EBlFqCzYq+UFxpsieSkACRSaAgEI4YRX8/PPPI3Noo91DK+FFbCHCEEslYpUkNCSfqUQQIvwoMk9twfXr14dVsBkWzkrG5ToSkIAEJCABCVRHIBeCkAsRamVRU5C4lgsXLiRiBbEKFiQJanXUXVsCEig1AcQR1r/MnZJkK71vSi8QO5gnCxr9RJxiucT98+uvvw5r4bVr18JbY+QksS79R0AS+8iYli1bFllEFYMjSflcAhKQgAQkUCwCLRWEiD0SGlA8GRGIRXD//v0R30KSA5sEJCCBohFAWGF9I56OUhK7du2KjKKIqbw1hBwCddGiRWHlyzwyKHJPnCH/w6xDllLcS8kcmo0Jl1ES5NgkIAEJSEACEig2gZYJQsQgy/nz59PBgwcjeQyJY7gIMVaw2AeVvZdAOxOgkDzWs08//TQeSbKCi2XeG32kbiCWTRJ4Ebt98+bNEISIWz7bvHlzFJunNEYe3F7zztT+SUACEpCABIpAoOmCEBHIXWgSx5DhjkLJuIpSG4u70nxuk4AEJFAkAiRrwYJGTUFi6yg0jyhEHBZFOGEJxLLJGBCzWP/w3MBFlLGQPAYXWBLk6CJapKPTvkpAAhKQgATGJtBUQUgGUVyQuOtM9tAvvvgiYgWJH7RJQAISKBqBzOUSixnxdCRZoaxE75t4wSI2xrNgwYIYBzfnELkkw2E8vG+TgAQkIAEJSKB8BJpahxCrIC6ixAliFSRxATWxSB5jk4AEJFA0AghBXEKpwYcQRBRiQSN7Z1EbQhC3fWK7ifHOxmOh+aLOqP2WgAQkIAEJjE2g4YKQCwtcQYkPxEX0+PHjUVYCcUh2UZsEJCCBIhHAioYbKEIwc6ckvq6vry8ybuI+apOABCQgAQlIQAJFIdBwl1FE3/DwcNq3b1+UlKDOFSLRxDFFOUTspwQkMJIAgpD4uoGBgbRjx460e/fuEIhk6+QzmwQkIAEJSEACEigSgYYJwsePH6c7d+5ErCBWQYQgwlCrYJEOD/sqAQlkBLAKUn6Bmn0kWOERF1GyctIUgxkpHyUgAQlIQAISKBKBugrCLPaEuBPiAxGB3377bWQSRSBqFSzSoWFfJSABCCD0EILUEaT8AvGCW7ZsSQsXLoz3pSQBCUhAAhKQgASKTKDughDhd/jw4XTo0KGoL0g9K8tJFPkQse8SaG8CCMKlS5dG0hjcQynijjgsSjmJ9p49Ry8BCUhAAhKQwHgE6iIIKSeB6KOWYJY4hqLGWAm1Co43BX4uAQnkjQAikJhASi1Ql494QWoLkjiG+EETx+RtxuyPBCQgAQlIQAK1EpiwIEQM4iJKfOAPP/yQvvzyy3Tr1q0oJ1Frp/yeBCQggVYRQOxh/aOkBCLws88+i3hB6/C1akbcrwQkIAEJSEACjSQwIUFIzODFixcjRhAX0UuXLkXtKusKNnLK3LYEJNBIAtTdo5wEBdlJHNPV1ZVmzpzZyF26bQlIQAISkIAEJNAyAlULQkQgVkFiA6kleOTIkXTs2LHIJmrimJbNozuWgAQmQAAXUVxBqS24YsWKcBE1ccwEgPpVCUhAAhKQgAQKQ6AmQfj06dN06tSp9H//93+JWMGsyDxi0SYBCUigaASIFyRr6LZt28IyuHr16jRlyhRjBYs2kfZXAhKQgAQkIIGqCVQlCKkrSKKYo0ePhiAkgQyWQl1Eq+buFyQggRwQoIZgR0dHWrNmTcQLIgQpLYG10CYBCUhAAhKQgATagcC4ghCrH4KPxDFYA3EPpbbg0NBQevbsWTswcowSkEDJCGARpLYgVkGKy3/yySchCOfNm6dVsGRz7XAkIAEJSEACEhibwLiC8OXLl+n69evpp59+injB06dPaxUcm6mfSkACOScwffr0EICbNm1KLMQOklWUWEKbBCQgAQlIQAISaCcCowpCrH+ZVZB4QdxEqTN48+bNduLjWCUggZIQoJzE5MmTI2tob29vuIniIkqdQT5TDJZkoh2GBCQgAQlIQAJVERhVECIGEYBffPFFOnz4cLp3755F5qtC68oSkEBeCCD2iBekfATlJHbt2hVC0FjBvMyQ/ZCABCQgAQlIoFUERhWExAju27cvXbhwISyFZhBt1RS5XwlIYCIEKDK/aNGihDUQ91Asgrwmi6hNAhKQgAQkIAEJtDuBUQUhFsKrV6+GZfD58+ftzsnxS0ACBSKARZBl1qxZkTimv78/rVu3LlFbkGQyiESbBCQgAQlIQAISkEBKo14V4V41Z86cSCgjKAlIQAJFIoAYJF5w5cqVaceOHSEGKSeBVZDPbBKQgAQkIAEJSEAC/yIwqiDkwmn27NlxUSUsCUhAAkUhQJwgLqGDg4PhJooopLwElkGbBCQgAQlIQAISkMC7BEYVhFgIEYTG2bwLzFcSkEA+CWAR5H+ru7s7Moju3bs3LVmyJMpJ5LPH9koCEpCABCQgAQm0nsCoghAhSG0uLrJsEpCABPJMgLIRnZ2dYRUkccyqVasSReYRiDYJSEACEpCABCQggdEJjCoIsxhCLYSjw/MTCUigtQRIDkNBeayCZBElcUxfX1+4iBor2Nq5ce8SkIAEJCABCRSDwJiC0BjCYkyivZRAuxIgLpB4wT/96U8hBpcuXdquKBy3BCQgAQlIQAISqInAmIKQLKNaCGvi6pckIIEGEsAqSHzg2rVrQwhSW5D/K5sEJCABCUhAAhKQQHUERhWExA5y0ZXV7Prll1+Sxemrg+vaEpBA/QjgAjpp0qSIbcYSODAwEIXmySaK66guovVj7ZYkIAEJSEACEmgfAqMKQpI0IAqnTZsWovDx48cKwvY5LhypBHJHANE3ffr0tH379igwTzkJCs8rBnM3VXZIAhKQgAQkIIECERhVEDIGRCEXYFgKnzx5UqBh2VUJSKAsBLAKIvx6enqinASWQVxEySLKZzYJSEACEpCABCQggdoJjCkI2SxikELPt2/fTriN2iQgAQk0iwDWP/5/EIM7duxIv//97+MmleVwmjUD7kcCEpCABCQggbITGFMQEpOTCUKshTYJSEACzSSwePHi1N/fn3bu3BnlJPg/8r+omTPgviQgAQlIQAISKDuBcQUhLqPcoTdhQ9kPBccngfwQIJnV3LlzI4Po5s2bw1WULKL+D+VnjuyJBCQgAQlIQALlIDCmIGSI3JH3rnw5JttRSKAoBDo6OtL69evTnj17IpMoVkHFYFFmz35KQAISkIAEJFAkAmMKQl1GizSV9lUCxSeA8Fu4cGHUF/z0008jdtDEMcWfV0cgAQlIQAISkEB+CYwpCOm2LqP5nTx7JoEyEUD4TZ06NVFOYsOGDeEmStkbmwQkIAEJSEACEpBA4wiMmSlGC2HjwLtlCUjgXQKIwQULFkSdwa1bt4Y4fHcNX0lAAhKQgAQkIAEJ1JtARRZCYgi5e49AfP36db374PYkIAEJJDKKbtmyJbKJzp4922yiHhMSkIAEJCABCUigCQTGFIQIQFy2cBulHpiCsAkz4i4k0GYE+F/h/4Vag3v37k2dnZ0WnG+zY8DhSkACEpCABCTQOgJjuozSLS7WpkyZEqUneLRJQAISqCcBSkz09fWlFStWpEWLFiVe2yQgAQlIQAISkIAEmkOgIkE4efLkNGvWLC/UmjMn7kUCbUOAG054IAwODqbe3t4ocYO10CYBCUhAAhKQgAQk0BwC4wpCusEFGjE93rlvzqS4Fwm0CwEE4cyZMyOrKILQJgEJSEACEpCABCTQXAIVCUIshArC5k6Me5NAOxCYN29eWrZsWWQXxVJok4AEJCABCUhAAhJoLoGKBGFmISQtvE0CEpBAvQhQZoJkMtxw4saTTQISkIAEJCABCUiguQQqEoRcqHV0dOgy2ty5cW8SKD0BksiQUMabTaWfagcoAQlIQAISkEBOCVSUvUGX0ZzOnt2SQEEJEDv4b//2b+Eq2tXVpSAs6DzabQlIQAISkIAEik+gIkGIy+icOXO0EBZ/vh2BBHJBADFIGZv58+dH3UEzi+ZiWuyEBCQgAQlIQAJtSKAiQajLaBseGQ5ZAg0kQMZi4gfJMDpp0qSod9rA3blpCUhAAhKQgAQkIIFRCFQUQ8jd+6wOIa5eNglIQAITIUDM4MKFC6PuINZCmwQkIAEJSEACEpBAawhUdCXGHfwZM2aEyyjiUFHYmslyrxIoC4FMEE6bNq0sQ3IcEpCABCQgAQlIoJAEKhKECEBEIW5euHgZ71PIubbTEsgNgSxRldlFczMldkQCEpCABCQggTYlUJEgzNhwNx/XUcShTQISkECtBBCE/JeQWMYmAQlIQAISkIAEJNA6AlUJQiyE1CPUQti6CXPPEigDAW4qcYPJ/5IyzKZjkIAEJCABCUigyASqEoRcwCkIizzd9l0C+SBAIhmshHob5GM+7IUEJCABCUhAAu1LoCpBiIVw9uzZ3tVv3+PFkUugLgSyuGQTVNUFpxuRgAQkIAEJSEACNROoWhAS96ObV828/aIEJPCGwOvXr9OrV6/iUSASkIAEJCABCUhAAq0jUJUg1GW0dRPlniVQJgKIwRcvXoQoLNO4HIsEJCABCUhAAhIoGoGqBKFJZYo2vfZXAvkkgCB89uxZevnyZT47aK8kIAEJSEACEpBAmxCoShBqIWyTo8JhSqDBBLAOPnjwID1//rzBe3LzEpCABCQgAQlIQAJjEahKEGIhzGIITQYxFlY/k4AExiKAILx3756CcCxIfiYBCUhAAhKQgASaQKAqQUiaeKyEU6dONbFMEybHXUigrARwF71161Z68uRJWYfouCQgAQlIQAISkEAhCFQlCKkdNmXKlDR9+vQQhYUYoZ2UgARyRwBBeOPGjfTo0SMzjeZuduyQBCQgAQlIQALtRKAqQQgYRCFuo4hCmwQkIIFaCDx9+jQNDQ2lhw8fhiCkDIVNAhKQgAQkIAEJSKD5BGoShDNnzlQQNn+u3KMESkPgl19+ifjBO3fupJs3b5pttDQz60AkIAEJSEACEigagaoF4aRJk8JCOGPGjKKN1f5KQAI5IYBFkJITiMGrV6+aXCYn82I3JCABCUhAAhJoPwJVC0JcRrEQklzGJgEJSGAiBK5fv57OnTuXcCG1SUACEpCABCQgAQk0n0BNgpAYQi2EzZ8s9yiBshEgsQyCkJqEFqkv2+w6HglIQAISkIAEikCgakGYuYyaVKYI02sfJZBvArdv306XLl2yBEW+p8neSUACEpCABCRQYgJVC8LMZVRBWOKjwqFJoEkESC6DdfDo0aMhDJu0W3cjAQlIQAISkIAEJPD/CCgIPRQkIIGWESC5DKUnjh8/ns6fPx+F6hGJNglIQAISkIAEJCCB5hBQEDaHs3uRgARGIfDkyZN04sSJdObMmYQL6fPnz0dZ07clIAEJSEACEpCABOpNoGpB+Lvf/S5NmTIlffzxx5FplJhCmwQkIIFaCWAlfPHiRbp79264jT5+/LjWTfk9CUhAAhKQgAQkIIEqCdQkCBGBU6dOjfITkydPrnKXri4BCUjgXwSISea/ZP78+Ym4ZIThq1evxCMBCUhAAhKQgAQk0CQCH9W6H6yEc+fOTc+ePbOGWK0Q/Z4E2pwAN5Q6OzvTrl270vr169OqVauscdrmx4TDl4AEJCABCUiguQRqFoTc1Z8zZ07E/DS3y+5NAhIoOgH+P6hn2tfXlwYGBtLatWvT0qVLU0dHR9GHZv8lIAEJSEACEpBAoQjULAi5sz979uyIJyzUiO2sBCTQMgLEIONyzn9HT09P+vzzz9OWLVvSjBkz4v2WdcwdS0ACEpCABCQggTYlULMgzCyEuI7aJCABCYxHIIsXXLNmTRocHAyr4OLFi8NFlM9sEpCABCQgAQlIQALNJ1CzIMxiCBWEzZ809yiBIhFA7PE/QeKYrq6utHnz5nATxV30o49q/gsqEgL7KgEJSEACEpCABHJLoOarMS7wiCHEUmiTgAQkMBoBRB//Fdu2bUufffZZWrRoUcQPKgZHI+b7EpCABCQgAQlIoHkEahaECEGyjGohbN5kuScJFIkA8YK4hBIrSNIYMohiIZw2bZqWwSJNpH2VgAQkIAEJSKDUBGoWhJmFUEFY6uPDwUmgagIj65QSK7hx48awDpJB1FjBqnH6BQlIQAISkIAEJNBQAhMWhFgKsQS8fv26oR114xKQQP4JIPiwAGINpLZgb29vlJOYOXOmYjD/02cPJSABCUhAAhJoQwI1C8LMCvDxxx9HHCEF6hWFbXgEOWQJ/D8CiL558+allStXRhbRDRs2hFs5JSVsEpCABCQgAQlIQAL5JFCzIMzqiWENYHnx4kX65Zdf8jlKeyUBCTSMAP8FWAYXLFgQsYJ/+MMfwjLIzSKbBCQgAQlIQAISkEC+CdQsCLNhTZ8+PWEZePjwoYIwg+KjBNqEAJlCsQoODAwk6gv29/dHIpnJkye3CQGHKQEJSEACEpCABIpNoC6CcNasWenGjRvFJmHvJSCBigkgBIkfJoso9QSpLUjc4NKlSyvehitKQAISkIAEJCABCbSewIQEIa5ixAdhISSm0CYBCbQHATwDOjs7E+6hZBHFXVQX0faYe0cpAQlIQAISkEC5CExIEIKCC0MshKaTL9eB4Wgk8D4BbgBhFaSWYJY4hkcKzSMG+dwmAQlIQAISkIAEJFAsAnURhKaUL9ak21sJVEMgSxrDzR8sgZs2bQoXUSyDfKYQrIam60pAAhKQgAQkIIF8EVAQ5ms+7I0EckeABDF4ASAEt2zZkpYvX57mz5+vGMzdTNkhCUhAAhKQgAQkUD0BBWH1zPyGBNqCAJa/2bNnR+IYEsasX78+sol2dHQks4i2xSHgICUgAQlIQAISaAMCCsI2mGSHKIFaCBAXTLzgtm3b0h//+McQh2QXtUlAAhKQgAQkIAEJlIfAhK/uKEpPDCEXilgUXr9+XR46jkQCbUYAEYj1D7fQtWvXRimJnp4eMwm32XHgcCUgAQlIQAISaB8CExaEU6ZMiQyDZBlEFL548aJ96DlSCZSIABlEublD1lDcQ7dv3x51BXERtUlAAhKQgAQkIAEJlJPAhAUhVsEs6QSiUEFYzgPFUZWfwNy5c8MiuHfv3tTb25vmzZsXN3nKP3JHKAEJSEACEpCABNqXwIQFIeiwDGJFQBA+ePCgfWk6cgkUjAAuoiSOWbZsWVq9enXq7+8PUThnzhwTxxRsLu2uBCQgAQlIQAISqIVA3QVhLZ3wOxIoGgGEVLZgJec5jedZI56W5dWrV/H4yy+/xGMe4mzp76RJkxK1BYkR3LVrV7iJEjs4cgzZWHyUgAQkIAEJSEACEignAQVhOefVUTWQAIKJunzZMmPGjBBWuE5nwhDR9/Lly/T06dP06NGjWO7cuROPz58/b2DvKtt0VmR+x44daXBwMCyEWPkVg5Xxcy0JSEACEpCABCRQFgJ1FYRkHLVJoEwEEEgc14g+BBNJV3iOm2X2GnGFu/SHBOGzZ8/S48ePY7l79264VD98+DCx4F59//79EI2Ix2Y0EscQK4glcOXKlWnz5s0hBhmTYrAZM+A+JCABCUhAAhKQQL4I1E0QcoHMRbFNAmUhgEBiIblK75skKwMDA/HY3d0dIhEBmImo7PFDY89cR3nEWnjr1q107ty5dPr06XTixIk0PDzclNhb+oigJYPozp0705YtWyL+F6vmWP3/0Jh8TwISkIAEJCABCUigHATqJgixlmghLMdB0c6jQBgRW0fpBYQf8XWLFy9OCxYsCMtaZhVkncw9tBpebJ8kTPxWKPq+YcOGdO3atXTlypUQiTdu3AjRWM84Q/bHzRpcQ9esWRNJY9g3JWMUgtXMnutKQAISkIAEJCCB8hGoqyDUQli+A6RdRoQwwuKHBS0rv4CAojg7GTfrdbODfbAQf4goQ/jdvHkzXbp0KdxQz549m4aGhsJi+OTJk/i81jlgTPSb8SBqsQpu3LgxxC1i0CYBCUhAAhKQgAQkIAEFoceABN4QwIqGcFq3bl0Ip6VLl8Zr4gOxBjaqIdoQnOwHiySWwqNHj6aDBw+GS2mWmbSW/TMmyklghdy9e3eaP39+CFEEqU0CEpCABCQgAQlIQAIQqIsg5IKZpBRYCHmepdkXsQTyTgBBtnDhwrDWUYePZdWqVWEpJAFLM1pmNcyS0/A7wlKJm+qpU6cS2UkrzUzKeBCCuLzi7krcI2MiiQxWwVrcXJvBwH1IQAISkIAEJCABCbSGQN0EIRexLFx0cvGKZcMmgbwSyIQTx+uKFSvS1q1bEyUYsBK2SjTRJ2IUWbBQ9r5JZINL6cmTJ9Pt27fHvdFCvxkPYhJX108++SQyiZLwySYBCUhAAhKQgAQkIIEPEaiLIGTDXMwSr8TFLOn1FYQfwu17eSDAsYo1DndKMm1iEeQ5cX18lodG/7Dq/fu//3tY+7755puwFBJXOFojGypWwW3btqW+vr4QlWzHJgEJSEACEpCABCQggdEI1E0QsgMshFgjqLFG/TWbBPJGgJsWHKMIQJLGIJ5wGUUM5qnhRko/cflEpGJ1J7bw6tWr8dvKspDyGe7aiEHqCjImagvyulkur3niZl8kIAEJSEACEpCABKojUFdByAUoFkJS59skkEcCCCVE0+effx4CCgtaI5PGTIQBLqD8pogB7OzsjE1Rx5CspFjgEYP0fcmSJeHuirUTCyFislVurxMZr9+VgAQkIAEJSEACEmg+gboKwsz6QlILmwTyQgDRhLUN19D+/v6wumEhxLKWVzGYsUP0IQqJbdy+fXv098svvwwrIbGC1BXMEscgGrHS2yQgAQlIQAISkIAEJFApgboqNy5GsRCa1r5S/K7XSAKIPY5FxBTxeJReQBAiBovUMksh4o8xUacQl2yykH766adh6WSMNglIQAISkIAEJCABCVRLoK6CMHMZ1UJY7TS4fiMI4A6K1WzXrl1RkJ1SDFjVitr4fSFm/+M//iOELjdfEIImjinqjNpvCUhAAhKQgAQk0HoCdRWEmYVQQdj6iW3XHuBiyfGHEOx9U7YBd0osa1gIEVRFjq2j7yS/IXkMls9sPIzZJgEJSEACEpCABCQggVoI1F0QEqulIKxlKvzORAlkYhDRtG7duoi5y+LuyiKaEIL8xmwSkIAEJCABCUhAAhKoB4GGCEJjCOsxNW6jGgIcc7iDYhHcsGFD1OFbvHhxxNyVRQxWw8N1JSABCUhAAhKQgAQkUAmBugrCKVOmxEU5j7i3vXr1qpI+uI4EJkQAi+D8+fPDLZQafBs3bgwrGi6VNglIQAISkIAEJCABCUhgdAJ1FYS4ihJHyIIofPr06eh79hMJ1IEA1r+urq60adOmtGfPnigyT5KVIscK1gGLm5CABCQgAQlIQAISkEBFBOoqCLk450Ic1z0uykmN//r164o64koSqJQAxxkuoriEZrUFSbTCa25GKAYrJel6EpCABCQgAQlIQALtTqCughCYIwXhnTt32p2v468zgcwKPW/evEgc89lnn6Xu7u4ov1DnXbk5CUhAAhKQgAQkIAEJlJ5AwwThjBkzEpYcLYSlP4aaOkCEYO+bchI7d+6M8gvUFjRWsKlT4M4kIAEJSEACEpCABEpEoCGCEDFosewSHSUtHgo3FqZNmxbxgWQRXbt2bdQWJJEMsao2CUhAAhKQgAQkIAEJSKA2Ag0RhFkMYW1d8lsSeJcAgnDu3Llp69atYRlEEPKeTQISkIAEJCABCUhAAhKYGIG6C0Iu1BGEmcvoxLrnt9uZAMcSMYOUkaC2IEKQxDGKwXY+Khy7BCQgAQlIQAISkEA9CdRdEGZJZRCENglMhAD1BRGAW7ZsibISlJdAINokIAEJSEACEpCABCQggfoQqPvVdSYIiSHUklOfSWrHrXDs9L5JHvPHP/4x9ff3hzCcNGlSO6JwzBKQgAQkIAEJSEACEmgYgYYIQqyDuow2bM5Kv2ESyPT09ISr6ODgYCKzKHUHbRKQgAQkIAEJSEACEpBAfQnUXRBi2UEMYiHEovPy5UtLT9R3zkq9NY6Z2bNnp82bN4cgxE3UJgEJSEACEpCABCQgAQk0hsC/1XuzCEIu6qkNhzDUslNvwuXeHtlE+/r60vr166PgfLlH6+gkIAEJSEACEpCABCTQWgJ1F4QMhzhC6sORFERB2NoJLsresxsJy5cvf5tAhmy1NglIQAISkIAEJCABCUigcQQaIgjpLoJwzpw5YSlsXPfdclkIIAjJIErM4J49e8JttCxjcxwSkIAEJCABCUhAAhLIKwEFYV5nps36xc0D6g1iIcTV2IyibXYAOFwJSEACEpCABCQggZYQqHtSmWwUWggzEj6ORwDrYCYIly5dGtbl8b7j5xKQgAQkIAEJSEACEpDAxAk0zEJI7CAX+QhDmwTGIoA1kGQyJJJZuHDhWKv6mQQkIAEJSEACEpCABCRQRwINE4RkGaV+HI82CYxGgAREiEDKS8yfPz99/PHHo63q+xKQgAQkIAEJSEACEpBAnQk0VBBygU9NOWoSYjHk4t8mgZEEsA52d3dH7CAF6Y0dHEnH5xKQgAQkIAEJSEACEmgsgYbFEJIYpKenJ/3hD39IixYtSkePHk1DQ0Pp7t27jR2RWy8UAQQgcYMsisFCTZ2dlYAEJCABCUhAAhIoAYGGCUIsgiz9/f1Rj7CjoyOdP38+Xb58Od2+fTs9fPgwPX/+PL1+/boEGB1CLQRIJsMxwg2Dzs5OLci1QPQ7EpCABCQgAQlIQAISmACBhgnCrE+4jFKgfuXKlenKlSvp9OnT6dtvv01nzpxJd+7cURBmoNrwEYsgSYdwLSbeVJfiNjwIHLIEJCABCUhAAhKQQEsJNFwQYgXiwp8FK1BWjuLq1avp0qVL6dy5c4nnT58+Tb/88ktLYbjz5hIgtpSEMjzqLtpc9u5NAhKQgAQkIAEJSEACEGi4IByJmbhCFuLF7t27F4KQcgMIgps3b6b79++nx48fp1evXmk5HAmupM9JIoMgJLMoNw5sEpCABCQgAQlIQAISkEBzCTRVEGZD4+J/5syZ4UaK1XDz5s3hSvrzzz+nI0eOhLXw5cuX2eo+lpQAgpAbAtaqLOkEOywJSEACEpCABCQggdwTaIkghMpHH30UC6KAhDNYCYk3XLJkScQakpF0eHg4vXjxIiyGuSdpB6smQI1K5pxjwSYBCUhAAhKQgAQkIAEJNJ9Ay6/EsRYiCvv6+tKyZcvStm3b0sGDB2P56aef0oMHDyIbKfGFZiRt/gHSyD2SYRRLMY82CUhAAhKQgAQkIAEJSKD5BFouCEcOmcQiiMOBgYGILdu4cWM6e/ZsZCSlZAUxhsQX2spBgPnGXdTsouWYT0chAQlIQAISkIAEJFA8ArkShFgLcR8k0QhlCJYvXx7PKUswZ86cyEZ669atqGH47Nmz4tG2x+8QQAgy3yaUeQeLLyQgAQlIQAISkIAEJNA0ArkShCNHjfWI7JPUL+zu7o7EM8ePH0/79+9Pp06divhCXUhHEivec4QgolBBWLy5s8cSkIAEJCABCUhAAuUgkFtBCF6EAvFliEMsSWvWrImVgSV1AAAMh0lEQVQkJP39/VGy4uLFi+nGjRvp7t275ZiNNhsF7r8mDWqzSXe4EpCABCQgAQlIQAK5IpBrQZiRwoqEtbCrqyuWTBCSfAZrIcLwyZMnCTdSy1Vk1PL/SKKg58+fGxea/6myhxKQgAQkIAEJSEACJSVQCEH4PnuK25OVdMGCBWnt2rWJhDOHDx9OFy5ciAL3upK+TyyfrxHvCHmEoU0CEpCABCQgAQlIQAISaD6BQgpC3EdZEIYsFDenliFlKy5fvpyuXbuWbt++HWLDrKTNP6gq3SMWXTLH4jZqk4AEJCABCUhAAhKQgASaT6CQgnAkplmzZiWW3t7edOfOnRCEX331VVgMiS/EJRGLoVbDkdTy8fzp06cR/6kgzMd82AsJSEACEpCABCQggfYjUHhBOHLKsBZiJfzjH/8YtQzPnTsXNQx5xDXR+MKRtFr//PHjx5Et1hIirZ8LeyABCUhAAhKQgAQk0J4ESiUIKXLOQs1CEtAsXrw46hniTjo8PJyoYYiLIsJQV9LWH/BYCHHtRRgyJ7gB2yQgAQlIQAISkIAEJCCB5hEo7RX4tGnT0ooVK0IY7tixI504cSLcSA8cOJAePHgQrqTNw+yePkQAy+C9e/diQRTi+mtNwg+R8j0JSEACEpCABCQgAQk0hkBpBSGlKrAWUseQkhUIjSzxzKVLlyLW8MqVK2GdMstlYw6u8bZKXCfxg8R6skyfPl0r4XjQ/FwCEpCABCQgAQlIQAJ1JFBaQZgxyorbL1myJC1atCitX78+nTx5Mh09ejTEx/Xr19OjR4/CYmiMYUateY+47l69ejUNDQ2l5cuXN2/H7kkCEpCABCQgAQlIQAISSJP+vzetnThgOST5DOIQl1JqGU6aNCkRz8ZiNtLWHA24iw4MDIRFtzU9cK8SkIAEJCABCUhAAhJoPwKltxCOnFKshSyID0QhYnD27NlRxxCBSA1DXBfv3r2bHj58qDgcCa9Bz7EQkuwHKyGJfzo7OxPxnzYJSEACEpCABCQgAQlIoPEE2koQjsSJpXDq1Kmp9039QlwVt27dms6fP5++++67dOTIkXAjZX0thiOp1f85fEnygxC/cOFCzImCsP6c3aIEJCABCUhAAhKQgAQ+RKBtBeFIGIhDEppQw5AENKtWrUoXL15Mp0+fTiSeuXnz5sjVfd4AApSf+OGHH9LMmTPDnRdLrk0CEpCABCQgAQlIQAISaCyBtoshHA0ncYRYpnAjXbhwYTySoTSrjcfnWLPMSDoawYm9j+sobrq47rLAHqFuk4AEJCABCUhAAhKQgAQaR0BB+AG2iEAsVRS37+npeZv98smTJ+FKalH7D0Cb4FsIbeoSEtuJtXbOnDnhPjrBzfp1CUhAAhKQgAQkIAEJSGAMArqMfgAOlilqGLIQZ0gSGlxJu7u7w5WU5DPXrl2LGoaWqvgAwBregjlWWBae6zJaA0S/IgEJSEACEpCABCQggSoJKAjHAYYQZMGNdHBwMDKRHjhwIB06dCgSoZAQheLqWA1NQDMOzFE+RgRmVkE4z507962r7ihf8W0JSEACEpCABCQgAQlIoA4EfvdGxLyuw3baYhNYA3EbvXfvXiSaISspRe6PHTsW8W+4PNqqI4A1kJjB1atXpx07dkRin6z0BELRJgEJSEACEpCABCQgAQk0joCCsEa2z58/T9evX0/nzp1LJ06cSENDQ/GamnoIQ5PPjA0WIdjR0RF1BxGDa9asSRs3bowYQhLK2CQgAQlIQAISkIAEJCCBxhNQEE6AMW6iCD8sh1gJcSP9/vvvw3qIJdH2YQLEB5K4BxG4e/futGnTprRkyZKIHzR28MPMfFcCEpCABCQgAQlIQAKNIKAgnCDVzOOWOnrDw8NhKaTAOu6k1DK8e/duCMYJ7qY0XydBDy6ia9euDTfRvr6+KPFBDKFNAhKQgAQkIAEJSEACEmguAQVhHXkjDrEWIgSJLTxy5Ei6dOlSxBw+fvw4XEkzAVnH3RZiU2RsRfQtW7Ys9ff3pz179qSlS5dGeY9CDMBOSkACEpCABCQgAQlIoIQEFIR1nlQEHzGEuIxiHcRaiDA8fvx4unLlSriYtpsoxA00swpu3bo1DQwMRPwgItHEMXU+AN2cBCQgAQlIQAISkIAEqiBg2YkqYFWyKuKHMhXUL6S4PVYx3CQXL14clsOrV6+Ga+mdO3dKX6aC5DCMv7e3N61atSrKdvCc0hIklbFJQAISkIAEJCABCUhAAq0loIWwSfxxGSUT6f79+8NieOrUqahfiItp2TKSIoqzLKIki/nTn/6U1q1bF4ljFIJNOuDcjQQkIAEJSEACEpCABCogoCCsAFI9VkH4PX36NGEZvHHjRriP4kZK8hmEYplEIVZBhOD69esjgyixghSbx3JqFtF6HE1uQwISkIAEJCABCUhAAvUhoCCsD8eqtoIwpLg9gvDMmTMhCm/evBkxh8QeFlEcZlbBBQsWpK6ursggiiAcHBxMuI5qGazqEHFlCUhAAhKQgAQkIAEJNIWAgrApmN/dCUllWLAa3r9/P127di1cSQ8ePBiWwyLWMCQ5DEliPvvss7Rjx45IHEMMJfUGtQq+O/++koAEJCABCUhAAhKQQF4ImFSmBTOBQGJBQM2ePTtEE8Kpu7s7ylTgRkp20ocPH0bG0hZ0seJdIgTnzJmTenp6otA8yWMoLUEiHcZkk4AEJCABCUhAAhKQgATyS0ALYY7mhnIVWAuPHTuWsBYSW0jBexLSYE189epVbnqLoCUmsKOjI1FcfvPmzVFbcMaMGSF0c9NROyIBCUhAAhKQgAQkIAEJjEpAQTgqmuZ/gOB7/vx5CEBcSc+dO5dOnDiRDh8+nG7duhXvN79Xv90jYhDLINbADRs2pI0bN4Z1E2snsYLGC/6Wme9IQAISkIAEJCABCUggjwT06cvRrCCksLqx4IY5bdq0cCklUQv1C7EYYkF88OBBCMdWdJ2+kTG09009QQrMkzQmcxFtRX/cpwQkIAEJSEACEpCABCRQOwEthLWza9o3SUBz6dKlcCX96quvIr4QCyIWxWa5kWIVRLAiThGBf/3rX0MIIlxtEpCABCQgAQlIQAISkEAxCSgICzJvjx49ioyk169fT5cvX45SFSdPngyrIW6miMZGNcTgvHnzQgBu2rQpLIOUljBesFHE3a4EJCABCUhAAhKQgASaQ0BB2BzOddsLFkFqFl68eDEdOXIk4gx5TV1DXEmzkhb12CEWwalTp4ZVkMQxWAaJGUQMEkOIULRJQAISkIAEJCABCUhAAsUloCAs4NxRuJ6so1gNiSk8evRoZCWl0P2LFy/q5kZKvGBnZ2f6/PPP07p161Lvm7hBBKJisIAHjV2WgAQkIAEJSEACEpDABwiYVOYDUPL+FoKMhTp/kydPfmvFW716dcQaZgloEI61uJKSzAYXUbZH4hgeFy1aFC6ieWdj/yQgAQlIQAISkIAEJCCBygloIaycVa7XJI4Qt1GshT///HO4k2JBfPLkSWQkHS/5DO6fLIhBrIKUlNi1a1e4iGIVtJRErqffzklAAhKQgAQkIAEJSKAmAgrCmrDl70sIPtxIHz58mO7cuZNu3LiRcCGljiH1DBGGYzUsjriIUlOQOMG1a9em+fPnp5kzZ4YYNF5wLHp+JgEJSEACEpCABCQggWISUBAWc97G7DVxhE+fPo1MpIjBs2fPRjZSks9QruLZs2dvv48QxCq4ePHiiBEkVhDrIIljcEm1SUACEpCABCQgAQlIQALlJaAgLO/cxsgQf7du3UqHDx9OP/zwQzp16lS6ffv221FjFSQ+cM+ePelPf/pToq4g79kkIAEJSEACEpCABCQggfITUBCWfI5JLIMozNxIL1y4EBbDM2fOpI6OjrR06dJwDyWDKM+nTJkSCWtKjsXhSUACEpCABCQgAQlIQAJvCCgI2+gwQBwODw+HKymJZ8gk2t3dHfUFZ82aZV3BNjoWHKoEJCABCUhAAhKQgAQgoCBso+OAEhSIQjKSYjUkc2hWtoJYQpsEJCABCUhAAhKQgAQk0F4EFITtNd+OVgISkIAEJCABCUhAAhKQwFsC//b2mU8kIAEJSEACEpCABCQgAQlIoK0IKAjbarodrAQkIAEJSEACEpCABCQggV8JKAh/ZeEzCUhAAhKQgAQkIAEJSEACbUVAQdhW0+1gJSABCUhAAhKQgAQkIAEJ/EpAQfgrC59JQAISkIAEJCABCUhAAhJoKwIKwraabgcrAQlIQAISkIAEJCABCUjgVwL/P/ERLaIe+u1UAAAAAElFTkSuQmCC;" vertex="1" parent="1">
          <mxGeometry x="668.3199999999999" y="378.78" width="78.7" height="66.45" as="geometry" />
        </mxCell>
      </root>
    </mxGraphModel>
  </diagram>
</mxfile>
